<svg width="143" height="22" viewBox="0 0 143 22" fill="none" xmlns="http://www.w3.org/2000/svg">
<g clip-path="url(#clip0_173:28)">
<path d="M95.7165 21.2341C95.1858 21.5063 94.5835 21.0292 94.6908 20.4201L95.832 13.9163L90.9879 9.30183C90.5355 8.87008 90.7706 8.08083 91.377 7.99558L98.1118 7.03858L101.115 1.08896C101.386 0.552705 102.119 0.552705 102.389 1.08896L105.392 7.03858L112.127 7.99558C112.734 8.08083 112.969 8.87008 112.515 9.30183L107.672 13.9163L108.813 20.4201C108.921 21.0292 108.318 21.5063 107.788 21.2341L101.75 18.1321L95.7165 21.2341Z" fill="#FFD037"/>
</g>
<g clip-path="url(#clip1_173:28)">
<path d="M65.4665 21.2341C64.9358 21.5063 64.3335 21.0292 64.4408 20.4201L65.582 13.9163L60.7379 9.30183C60.2855 8.87008 60.5206 8.08083 61.127 7.99558L67.8618 7.03858L70.8648 1.08896C71.1356 0.552705 71.8685 0.552705 72.1394 1.08896L75.1424 7.03858L81.8771 7.99558C82.4835 8.08083 82.7186 8.87008 82.2649 9.30183L77.4221 13.9163L78.5634 20.4201C78.6706 21.0292 78.0684 21.5063 77.5376 21.2341L71.5 18.1321L65.4665 21.2341Z" fill="#FFD037"/>
</g>
<g clip-path="url(#clip2_173:28)">
<path d="M35.2165 21.2341C34.6858 21.5063 34.0835 21.0292 34.1908 20.4201L35.332 13.9163L30.4879 9.30183C30.0355 8.87008 30.2706 8.08083 30.877 7.99558L37.6118 7.03858L40.6148 1.08896C40.8856 0.552705 41.6185 0.552705 41.8894 1.08896L44.8924 7.03858L51.6271 7.99558C52.2335 8.08083 52.4686 8.87008 52.0149 9.30183L47.1721 13.9163L48.3134 20.4201C48.4206 21.0292 47.8184 21.5063 47.2876 21.2341L41.25 18.1321L35.2165 21.2341Z" fill="#FFD037"/>
</g>
<g clip-path="url(#clip3_173:28)">
<path d="M4.96651 21.2341C4.43576 21.5063 3.83351 21.0292 3.94076 20.4201L5.08201 13.9163L0.237885 9.30183C-0.21449 8.87008 0.020635 8.08083 0.62701 7.99558L7.36176 7.03858L10.3648 1.08896C10.6356 0.552705 11.3685 0.552705 11.6394 1.08896L14.6424 7.03858L21.3771 7.99558C21.9835 8.08083 22.2186 8.87008 21.7649 9.30183L16.9221 13.9163L18.0634 20.4201C18.1706 21.0292 17.5684 21.5063 17.0376 21.2341L11 18.1321L4.96651 21.2341Z" fill="#FFD037"/>
</g>
<g clip-path="url(#clip4_173:28)">
<path d="M124.941 20.4186C124.834 21.0291 125.436 21.5062 125.967 21.234L132.003 18.132L138.038 21.234C138.568 21.5062 139.171 21.0291 139.063 20.42L137.922 13.9162L142.765 9.30174C143.219 8.86999 142.985 8.08074 142.377 7.99549L135.642 7.03849L132.639 1.08886C132.582 0.968261 132.492 0.866365 132.379 0.795016C132.266 0.723666 132.136 0.685791 132.002 0.685791C131.869 0.685791 131.738 0.723666 131.625 0.795016C131.512 0.866365 131.422 0.968261 131.365 1.08886L128.362 7.03986L121.627 7.99686C121.021 8.08211 120.786 8.87136 121.238 9.30311L126.082 13.9176L124.941 20.4214V20.4186ZM131.685 16.614L126.617 19.2182L127.571 13.7774C127.593 13.6521 127.585 13.5233 127.546 13.4022C127.507 13.2812 127.438 13.1715 127.347 13.083L123.351 9.27424L128.923 8.48224C129.038 8.46482 129.148 8.41969 129.242 8.35072C129.336 8.28175 129.412 8.191 129.463 8.08624L132 3.05649L134.54 8.08624C134.591 8.191 134.667 8.28175 134.761 8.35072C134.855 8.41969 134.965 8.46482 135.08 8.48224L140.652 9.27286L136.656 13.0816C136.564 13.1703 136.496 13.2801 136.457 13.4015C136.418 13.5228 136.409 13.6519 136.432 13.7774L137.386 19.2182L132.318 16.614C132.22 16.5635 132.111 16.5371 132.001 16.5371C131.89 16.5371 131.782 16.5635 131.684 16.614H131.685Z" fill="#FFD037"/>
</g>
<defs>
<clipPath id="clip0_173:28">
<rect width="22" height="22" fill="white" transform="translate(90.75)"/>
</clipPath>
<clipPath id="clip1_173:28">
<rect width="22" height="22" fill="white" transform="translate(60.5)"/>
</clipPath>
<clipPath id="clip2_173:28">
<rect width="22" height="22" fill="white" transform="translate(30.25)"/>
</clipPath>
<clipPath id="clip3_173:28">
<rect width="22" height="22" fill="white"/>
</clipPath>
<clipPath id="clip4_173:28">
<rect width="22" height="22" fill="white" transform="translate(121)"/>
</clipPath>
</defs>
</svg>
