<svg width="41" height="41" viewBox="0 0 41 41" fill="none" xmlns="http://www.w3.org/2000/svg">
<path d="M0 0H41V41H20.5H0V0Z" fill="#283766"/>
<g clip-path="url(#clip0)">
<path d="M25.8795 23.8687C27.2714 21.9693 27.8949 19.6144 27.6251 17.2751C27.3553 14.9358 26.2122 12.7846 24.4244 11.2519C22.6367 9.71924 20.3362 8.9181 17.9831 9.00877C15.63 9.09943 13.398 10.0752 11.7335 11.7409C10.069 13.4066 9.09476 15.6394 9.00578 17.9925C8.9168 20.3456 9.71958 22.6456 11.2535 24.4322C12.7875 26.2189 14.9395 27.3605 17.279 27.6286C19.6185 27.8967 21.9729 27.2716 23.8713 25.8783H23.8699C23.913 25.9358 23.959 25.9904 24.0108 26.0436L29.5451 31.578C29.8147 31.8477 30.1803 31.9993 30.5617 31.9995C30.943 31.9996 31.3087 31.8482 31.5785 31.5787C31.8482 31.3092 31.9998 30.9435 32 30.5622C32.0001 30.1809 31.8487 29.8151 31.5792 29.5454L26.0448 24.011C25.9934 23.959 25.9382 23.9109 25.8795 23.8672V23.8687ZM26.2504 18.3429C26.2504 19.3812 26.0459 20.4093 25.6486 21.3685C25.2512 22.3277 24.6689 23.1993 23.9347 23.9335C23.2005 24.6676 22.329 25.25 21.3697 25.6473C20.4105 26.0447 19.3824 26.2492 18.3441 26.2492C17.3059 26.2492 16.2778 26.0447 15.3185 25.6473C14.3593 25.25 13.4877 24.6676 12.7536 23.9335C12.0194 23.1993 11.437 22.3277 11.0397 21.3685C10.6424 20.4093 10.4379 19.3812 10.4379 18.3429C10.4379 16.2461 11.2709 14.2351 12.7536 12.7524C14.2363 11.2696 16.2473 10.4367 18.3441 10.4367C20.441 10.4367 22.452 11.2696 23.9347 12.7524C25.4174 14.2351 26.2504 16.2461 26.2504 18.3429Z" fill="white"/>
</g>
<defs>
<clipPath id="clip0">
<rect width="23" height="23" fill="white" transform="translate(9 9)"/>
</clipPath>
</defs>
</svg>
