<svg width="30" height="30" viewBox="0 0 30 30" fill="none" xmlns="http://www.w3.org/2000/svg">
<path d="M7.51526 27.7884C7.3183 27.9596 7.07656 28.0712 6.81844 28.1098C6.56031 28.1485 6.2965 28.1128 6.05799 28.0068C5.81948 27.9008 5.61616 27.7289 5.4719 27.5114C5.32764 27.2939 5.24843 27.0397 5.24358 26.7787V23.7018C4.51593 23.7018 3.8181 23.4128 3.30357 22.8982C2.78905 22.3837 2.5 21.6859 2.5 20.9582V11.3557C2.5 10.6281 2.78905 9.93025 3.30357 9.41573C3.8181 8.90121 4.51593 8.61215 5.24358 8.61215H20.3332C21.0609 8.61215 21.7587 8.90121 22.2732 9.41573C22.7878 9.93025 23.0768 10.6281 23.0768 11.3557V20.9582C23.0768 21.6859 22.7878 22.3837 22.2732 22.8982C21.7587 23.4128 21.0609 23.7018 20.3332 23.7018H13.4784L7.51526 27.7884ZM24.4486 16.8662C24.4442 17.0349 24.4442 17.2037 24.4486 17.3724V16.8648C24.4555 16.718 24.4568 14.8799 24.4541 11.3516C24.453 10.2609 24.0189 9.21516 23.2473 8.44427C22.4756 7.67338 21.4295 7.24036 20.3387 7.24036H9.35894V5.86858C9.35894 5.14093 9.648 4.44309 10.1625 3.92857C10.677 3.41405 11.3749 3.125 12.1025 3.125H27.1922C27.9198 3.125 28.6177 3.41405 29.1322 3.92857C29.6467 4.44309 29.9358 5.14093 29.9358 5.86858V15.4711C29.9358 16.1987 29.6467 16.8966 29.1322 17.4111C28.6177 17.9256 27.9198 18.2147 27.1922 18.2147V21.2916C27.1873 21.5526 27.1081 21.8067 26.9639 22.0242C26.8196 22.2418 26.6163 22.4136 26.3778 22.5196C26.1393 22.6256 25.8755 22.6614 25.6173 22.6227C25.3592 22.584 25.1175 22.4725 24.9205 22.3012L24.4486 21.9775V16.8662Z" fill="white"/>
</svg>
