<svg width="133" height="133" viewBox="0 0 133 133" fill="none" xmlns="http://www.w3.org/2000/svg">
<circle cx="66.5" cy="66.5" r="66.5" fill="#283766"/>
<g clip-path="url(#clip0)">
<path d="M82.3465 39.875H70.4216C69.311 39.875 68.2421 40.291 67.423 41.0398L53.7767 53.5203C53.7628 53.5342 53.7489 53.5619 53.735 53.5758C51.4306 55.7391 51.4722 59.192 53.4435 61.3414C55.2066 63.269 58.9131 63.782 61.2315 61.7158C61.2454 61.702 61.2731 61.702 61.287 61.6881L72.379 51.5373C73.2814 50.7191 74.6974 50.7746 75.5164 51.676C76.3494 52.5773 76.28 53.9779 75.3776 54.81L71.7543 58.1242L91.967 74.5152C92.3696 74.8481 92.7305 75.2086 93.0637 75.583V48.75L85.4839 41.1785C84.6649 40.3465 83.5265 39.875 82.3465 39.875ZM97.5199 48.7777V79.8264C97.5199 82.2809 99.5051 84.2639 101.962 84.2639H110.847V48.7777H97.5199ZM104.183 79.8264C102.962 79.8264 101.962 78.8279 101.962 77.6076C101.962 76.3873 102.962 75.3889 104.183 75.3889C105.405 75.3889 106.405 76.3873 106.405 77.6076C106.405 78.8279 105.405 79.8264 104.183 79.8264ZM22 84.25H30.8847C33.3419 84.25 35.327 82.267 35.327 79.8125V48.7777H22V84.25ZM28.6635 75.3889C29.8852 75.3889 30.8847 76.3873 30.8847 77.6076C30.8847 78.8279 29.8852 79.8264 28.6635 79.8264C27.4419 79.8264 26.4423 78.8279 26.4423 77.6076C26.4423 76.3734 27.4419 75.3889 28.6635 75.3889ZM89.1767 77.9682L68.4503 61.1611L64.2856 64.9746C60.1626 68.7326 53.8461 68.3721 50.1673 64.3645C46.4329 60.2875 46.7245 53.9779 50.7781 50.2615L62.1339 39.875H50.5004C49.3204 39.875 48.196 40.3465 47.363 41.1785L39.7694 48.75V79.7986H42.3099L54.8734 91.1559C58.6771 94.2483 64.2717 93.6658 67.3675 89.8662L67.3953 89.8385L69.8802 91.9879C72.0875 93.7906 75.3498 93.444 77.1407 91.2391L81.4997 85.8863L82.2494 86.4965C84.1512 88.0358 86.9555 87.7584 88.4964 85.8447L89.8152 84.2223C91.3701 82.3086 91.0785 79.5213 89.1767 77.9682Z" fill="white"/>
</g>
<defs>
<clipPath id="clip0">
<rect x="22" y="31" width="88.847" height="71" rx="10" fill="white"/>
</clipPath>
</defs>
</svg>
