<svg width="24" height="24" viewBox="0 0 24 24" fill="none" xmlns="http://www.w3.org/2000/svg">
<path d="M22.3125 4.5H18.5625V2.15625C18.5625 1.12207 17.7217 0.28125 16.6875 0.28125H7.3125C6.27832 0.28125 5.4375 1.12207 5.4375 2.15625V4.5H1.6875C1.16895 4.5 0.75 4.91895 0.75 5.4375V6.375C0.75 6.50391 0.855469 6.60938 0.984375 6.60938H2.75391L3.47754 21.9316C3.52441 22.9307 4.35059 23.7188 5.34961 23.7188H18.6504C19.6523 23.7188 20.4756 22.9336 20.5225 21.9316L21.2461 6.60938H23.0156C23.1445 6.60938 23.25 6.50391 23.25 6.375V5.4375C23.25 4.91895 22.8311 4.5 22.3125 4.5ZM16.4531 4.5H7.54688V2.39062H16.4531V4.5Z" fill="white"/>
</svg>
