<svg width="35" height="35" viewBox="0 0 35 35" fill="none" xmlns="http://www.w3.org/2000/svg">
<circle cx="17.5" cy="17.5" r="17.5" fill="#F2F2F2"/>
<g clip-path="url(#clip0_223:579)">
<path d="M11.9666 28.2341C11.4359 28.5063 10.8336 28.0292 10.9409 27.4201L12.0821 20.9163L7.23798 16.3018C6.7856 15.8701 7.02073 15.0808 7.6271 14.9956L14.3619 14.0386L17.3649 8.08896C17.6357 7.55271 18.3686 7.55271 18.6395 8.08896L21.6425 14.0386L28.3772 14.9956C28.9836 15.0808 29.2187 15.8701 28.765 16.3018L23.9222 20.9163L25.0635 27.4201C25.1707 28.0292 24.5685 28.5063 24.0377 28.2341L18.0001 25.1321L11.9652 28.2341H11.9666Z" fill="#283766"/>
</g>
<defs>
<clipPath id="clip0_223:579">
<rect width="22" height="22" fill="white" transform="translate(7 7)"/>
</clipPath>
</defs>
</svg>
