<svg width="22" height="22" viewBox="0 0 22 22" fill="none" xmlns="http://www.w3.org/2000/svg">
<path d="M6.92514 20.1705L17.3798 9.71583L12.414 4.75008L1.95939 15.2047C1.81546 15.3488 1.71322 15.5292 1.66351 15.7267L0.504761 21.6251L6.40201 20.4663C6.60001 20.4168 6.78114 20.3145 6.92514 20.1705ZM20.7548 6.34083C21.1766 5.91889 21.4135 5.3467 21.4135 4.75008C21.4135 4.15346 21.1766 3.58127 20.7548 3.15933L18.9705 1.37508C18.5486 0.953268 17.9764 0.716309 17.3798 0.716309C16.7831 0.716309 16.2109 0.953268 15.789 1.37508L14.0048 3.15933L18.9705 8.12508L20.7548 6.34083Z" fill="white"/>
</svg>
