<svg width="35" height="35" viewBox="0 0 35 35" fill="none" xmlns="http://www.w3.org/2000/svg">
<circle cx="17.5" cy="17.5" r="17.5" fill="#F2F2F2"/>
<path d="M28.7789 12.6816L26.1664 10.6686C25.9889 10.5546 25.7959 10.4668 25.5933 10.4079C25.3916 10.3426 25.1816 10.3063 24.9696 10.3001H17.45L18.3311 15.8001H24.9696C25.15 15.8001 25.3755 15.7594 25.5922 15.6923C25.8089 15.6252 26.0179 15.5328 26.1653 15.4327L28.7778 13.4175C28.9263 13.3174 29 13.1843 29 13.0501C29 12.9159 28.9263 12.7828 28.7789 12.6816ZM16.35 8.1001H15.25C15.1041 8.1001 14.9642 8.15804 14.8611 8.26119C14.7579 8.36433 14.7 8.50423 14.7 8.6501V12.5001H11.0304C10.8478 12.5001 10.6234 12.5408 10.4067 12.609C10.1889 12.675 9.981 12.7663 9.8336 12.8686L7.2211 14.8816C7.0726 14.9817 7 15.1159 7 15.2501C7 15.3832 7.0726 15.5163 7.2211 15.6186L9.8336 17.6338C9.981 17.7339 10.1889 17.8263 10.4067 17.8923C10.6234 17.9594 10.8478 18.0001 11.0304 18.0001H14.7V27.3501C14.7 27.496 14.7579 27.6359 14.8611 27.739C14.9642 27.8421 15.1041 27.9001 15.25 27.9001H16.35C16.4959 27.9001 16.6358 27.8421 16.7389 27.739C16.8421 27.6359 16.9 27.496 16.9 27.3501V8.6501C16.9 8.50423 16.8421 8.36433 16.7389 8.26119C16.6358 8.15804 16.4959 8.1001 16.35 8.1001Z" fill="#283766"/>
</svg>
