<svg width="35" height="35" viewBox="0 0 35 35" fill="none" xmlns="http://www.w3.org/2000/svg">
<circle cx="17.5" cy="17.5" r="17.5" fill="#F2F2F2"/>
<path d="M26.9007 25.5991L25.5991 26.9007C25.4273 27.0715 25.195 27.1673 24.9528 27.1673C24.7107 27.1673 24.4783 27.0715 24.3066 26.9007L13.4166 16.0291C13.1185 16.1154 12.8102 16.1617 12.4999 16.1666C11.9163 16.1662 11.3412 16.0264 10.8224 15.759C10.3036 15.4916 9.85621 15.1042 9.51732 14.629C9.17843 14.1538 8.95786 13.6046 8.87395 13.027C8.79005 12.4495 8.84523 11.8602 9.03491 11.3083L11.3632 13.6366L11.8491 13.1508L13.1507 11.8491L13.6366 11.3633L11.3082 9.03492C11.8602 8.84524 12.4495 8.79005 13.027 8.87396C13.6046 8.95786 14.1538 9.17843 14.629 9.51733C15.1042 9.85622 15.4916 10.3036 15.759 10.8224C16.0264 11.3412 16.1662 11.9163 16.1666 12.4999C16.1617 12.8102 16.1154 13.1185 16.0291 13.4166L26.9007 24.3066C27.0715 24.4783 27.1673 24.7107 27.1673 24.9528C27.1673 25.195 27.0715 25.4273 26.9007 25.5991ZM9.09908 24.3066C8.92835 24.4783 8.83252 24.7107 8.83252 24.9528C8.83252 25.195 8.92835 25.4273 9.09908 25.5991L10.4007 26.9007C10.5725 27.0715 10.8048 27.1673 11.047 27.1673C11.2892 27.1673 11.5215 27.0715 11.6932 26.9007L16.7074 21.8958L14.1132 19.3016L9.09908 24.3066ZM25.3332 8.83325L21.6666 10.6666V12.4999L19.6774 14.4891L21.5107 16.3224L23.4999 14.3333H25.3332L27.1666 10.6666L25.3332 8.83325Z" fill="#283766"/>
</svg>
