<svg width="133" height="133" viewBox="0 0 133 133" fill="none" xmlns="http://www.w3.org/2000/svg">
<circle cx="66.5" cy="66.5" r="66.5" fill="#283766"/>
<path d="M60.5833 84.25C65.8343 84.2489 70.934 82.491 75.0703 79.2563L88.0751 92.2611L92.2582 88.078L79.2534 75.0732C82.4898 70.9365 84.2487 65.8356 84.25 60.5833C84.25 47.5341 73.6325 36.9166 60.5833 36.9166C47.5341 36.9166 36.9167 47.5341 36.9167 60.5833C36.9167 73.6325 47.5341 84.25 60.5833 84.25ZM60.5833 42.8333C70.3725 42.8333 78.3333 50.7942 78.3333 60.5833C78.3333 70.3724 70.3725 78.3333 60.5833 78.3333C50.7942 78.3333 42.8333 70.3724 42.8333 60.5833C42.8333 50.7942 50.7942 42.8333 60.5833 42.8333Z" fill="white"/>
<path d="M64.7605 56.4003C65.8817 57.5244 66.5 59.0095 66.5 60.5833H72.4167C72.4193 59.0285 72.1137 57.4886 71.5176 56.0526C70.9215 54.6166 70.0466 53.313 68.9436 52.2172C64.4647 47.7442 56.6991 47.7442 52.2231 52.2172L56.4003 56.4062C58.6486 54.1638 62.524 54.1697 64.7605 56.4003Z" fill="white"/>
</svg>
