<svg width="30" height="30" viewBox="0 0 30 30" fill="none" xmlns="http://www.w3.org/2000/svg">
<path d="M27.1788 15.4138L15.9288 2.91381C15.455 2.38631 14.545 2.38631 14.0713 2.91381L2.82126 15.4138C2.65933 15.5933 2.55304 15.816 2.51532 16.0548C2.47759 16.2935 2.51005 16.5381 2.60876 16.7588C2.80876 17.2101 3.25626 17.5001 3.75001 17.5001H6.25001V26.2501C6.25001 26.5816 6.38171 26.8995 6.61613 27.1339C6.85055 27.3684 7.16849 27.5001 7.50001 27.5001H11.25C11.5815 27.5001 11.8995 27.3684 12.1339 27.1339C12.3683 26.8995 12.5 26.5816 12.5 26.2501V21.2501H17.5V26.2501C17.5 26.5816 17.6317 26.8995 17.8661 27.1339C18.1005 27.3684 18.4185 27.5001 18.75 27.5001H22.5C22.8315 27.5001 23.1495 27.3684 23.3839 27.1339C23.6183 26.8995 23.75 26.5816 23.75 26.2501V17.5001H26.25C26.4921 17.5011 26.7292 17.4317 26.9326 17.3002C27.1359 17.1688 27.2965 16.9811 27.395 16.7599C27.4935 16.5388 27.5254 16.2937 27.487 16.0547C27.4486 15.8157 27.3415 15.593 27.1788 15.4138Z" fill="white"/>
</svg>
