<svg width="35" height="35" viewBox="0 0 35 35" fill="none" xmlns="http://www.w3.org/2000/svg">
<circle cx="17.5" cy="17.5" r="17.5" fill="#F2F2F2"/>
<path d="M25.7879 12.1581C26.191 12.2998 26.5401 12.5631 26.7871 12.9117C27.034 13.2603 27.1666 13.677 27.1666 14.1042V23.2709C27.1666 24.3041 26.7561 25.295 26.0255 26.0256C25.2949 26.7563 24.304 27.1667 23.2708 27.1667H14.1041C13.6769 27.1668 13.2602 27.0341 12.9116 26.7872C12.563 26.5402 12.2996 26.1911 12.158 25.788L14.0803 25.7917H23.2708C23.9393 25.7917 24.5805 25.5261 25.0533 25.0534C25.526 24.5806 25.7916 23.9394 25.7916 23.2709V14.1042L25.7879 14.0575V12.1581ZM22.8088 8.83337C23.3558 8.83337 23.8804 9.05067 24.2672 9.43747C24.654 9.82426 24.8713 10.3489 24.8713 10.8959V22.8098C24.8713 23.3568 24.654 23.8814 24.2672 24.2682C23.8804 24.655 23.3558 24.8723 22.8088 24.8723H10.8958C10.3487 24.8723 9.82414 24.655 9.43734 24.2682C9.05055 23.8814 8.83325 23.3568 8.83325 22.8098V10.8959C8.83325 10.3489 9.05055 9.82426 9.43734 9.43747C9.82414 9.05067 10.3487 8.83337 10.8958 8.83337H22.8097H22.8088Z" fill="#283766"/>
</svg>
