<svg width="30" height="30" viewBox="0 0 30 30" fill="none" xmlns="http://www.w3.org/2000/svg">
<path d="M27.375 23.4416L27.0917 23.1916C26.2878 22.4755 25.5843 21.6542 25 20.75C24.3618 19.5021 23.9794 18.1393 23.875 16.7416V12.625C23.8805 10.4296 23.0842 8.30785 21.6356 6.65827C20.187 5.00869 18.186 3.94484 16.0083 3.66663V2.59163C16.0083 2.29657 15.8911 2.0136 15.6825 1.80497C15.4738 1.59634 15.1909 1.47913 14.8958 1.47913C14.6008 1.47913 14.3178 1.59634 14.1092 1.80497C13.9005 2.0136 13.7833 2.29657 13.7833 2.59163V3.68329C11.6252 3.98157 9.6483 5.05184 8.21876 6.69588C6.78923 8.33992 6.00393 10.4463 6.00832 12.625V16.7416C5.90395 18.1393 5.52147 19.5021 4.88332 20.75C4.30906 21.6519 3.61682 22.4731 2.82499 23.1916L2.54166 23.4416V25.7916H27.375V23.4416Z" fill="white"/>
<path d="M12.7667 26.6666C12.8397 27.1949 13.1015 27.6788 13.5036 28.0291C13.9056 28.3794 14.4209 28.5723 14.9542 28.5723C15.4874 28.5723 16.0027 28.3794 16.4048 28.0291C16.8068 27.6788 17.0686 27.1949 17.1417 26.6666H12.7667Z" fill="white"/>
</svg>
