<svg width="133" height="133" viewBox="0 0 133 133" fill="none" xmlns="http://www.w3.org/2000/svg">
<circle cx="66.5" cy="66.5" r="66.5" fill="#283766"/>
<path d="M66.8125 34C48.6924 34 34 48.6924 34 66.8125C34 84.9326 48.6924 99.625 66.8125 99.625C84.9326 99.625 99.625 84.9326 99.625 66.8125C99.625 48.6924 84.9326 34 66.8125 34ZM66.8125 94.0586C51.7686 94.0586 39.5664 81.8564 39.5664 66.8125C39.5664 51.7686 51.7686 39.5664 66.8125 39.5664C81.8564 39.5664 94.0586 51.7686 94.0586 66.8125C94.0586 81.8564 81.8564 94.0586 66.8125 94.0586Z" fill="white"/>
<path d="M80.2954 76.0849L69.8511 68.5337V50.4062C69.8511 50.084 69.5874 49.8203 69.2651 49.8203H65.7422C65.4199 49.8203 65.1562 50.084 65.1562 50.4062V70.5771C65.1562 70.7676 65.2441 70.9433 65.3979 71.0532L77.5122 79.8862C77.7759 80.0766 78.1421 80.018 78.3325 79.7617L80.4272 76.9052C80.6177 76.6342 80.5591 76.268 80.2954 76.0849Z" fill="white"/>
</svg>
