<svg width="35" height="35" viewBox="0 0 35 35" fill="none" xmlns="http://www.w3.org/2000/svg">
<circle cx="17.5" cy="17.5" r="17.5" fill="#F2F2F2"/>
<path d="M16.625 26.25C16.625 26.25 15.25 26.25 15.25 24.875C15.25 23.5 16.625 19.375 22.125 19.375C27.625 19.375 29 23.5 29 24.875C29 26.25 27.625 26.25 27.625 26.25H16.625ZM22.125 18C23.219 18 24.2682 17.5654 25.0418 16.7918C25.8154 16.0182 26.25 14.969 26.25 13.875C26.25 12.781 25.8154 11.7318 25.0418 10.9582C24.2682 10.1846 23.219 9.75 22.125 9.75C21.031 9.75 19.9818 10.1846 19.2082 10.9582C18.4346 11.7318 18 12.781 18 13.875C18 14.969 18.4346 16.0182 19.2082 16.7918C19.9818 17.5654 21.031 18 22.125 18Z" fill="#283766"/>
<path fill-rule="evenodd" clip-rule="evenodd" d="M14.172 26.2501C13.9682 25.8208 13.8665 25.3502 13.875 24.8751C13.875 23.012 14.81 21.0938 16.537 19.7601C15.675 19.4945 14.7769 19.3646 13.875 19.3751C8.375 19.3751 7 23.5001 7 24.8751C7 26.2501 8.375 26.2501 8.375 26.2501H14.172Z" fill="#283766"/>
<path d="M13.1875 18C14.0992 18 14.9735 17.6378 15.6182 16.9932C16.2628 16.3485 16.625 15.4742 16.625 14.5625C16.625 13.6508 16.2628 12.7765 15.6182 12.1318C14.9735 11.4872 14.0992 11.125 13.1875 11.125C12.2758 11.125 11.4015 11.4872 10.7568 12.1318C10.1122 12.7765 9.75 13.6508 9.75 14.5625C9.75 15.4742 10.1122 16.3485 10.7568 16.9932C11.4015 17.6378 12.2758 18 13.1875 18Z" fill="#283766"/>
</svg>
