<svg width="32" height="25" viewBox="0 0 32 25" fill="none" xmlns="http://www.w3.org/2000/svg">
<g clip-path="url(#clip0_407:114)">
<path d="M21.2273 3.125H17.0824C16.6964 3.125 16.3249 3.27148 16.0402 3.53516L11.2969 7.92969C11.2921 7.93457 11.2873 7.94434 11.2825 7.94922C10.4815 8.71094 10.496 9.92676 11.1811 10.6836C11.794 11.3623 13.0823 11.543 13.8881 10.8154C13.8929 10.8105 13.9026 10.8105 13.9074 10.8057L17.7628 7.23145C18.0764 6.94336 18.5686 6.96289 18.8533 7.28027C19.1428 7.59766 19.1187 8.09082 18.8051 8.38379L17.5457 9.55078L24.5712 15.3223C24.7112 15.4395 24.8366 15.5664 24.9524 15.6982V6.25L22.3178 3.58398C22.0332 3.29102 21.6375 3.125 21.2273 3.125V3.125ZM26.5013 6.25977V17.1924C26.5013 18.0566 27.1914 18.7549 28.0454 18.7549H31.1336V6.25977H26.5013ZM28.8175 17.1924C28.3929 17.1924 28.0454 16.8408 28.0454 16.4111C28.0454 15.9814 28.3929 15.6299 28.8175 15.6299C29.2421 15.6299 29.5895 15.9814 29.5895 16.4111C29.5895 16.8408 29.2421 17.1924 28.8175 17.1924ZM0.251923 18.75H3.34009C4.19416 18.75 4.88417 18.0518 4.88417 17.1875V6.25977H0.251923V18.75ZM2.56805 15.6299C2.99267 15.6299 3.34009 15.9814 3.34009 16.4111C3.34009 16.8408 2.99267 17.1924 2.56805 17.1924C2.14343 17.1924 1.79601 16.8408 1.79601 16.4111C1.79601 15.9766 2.14343 15.6299 2.56805 15.6299ZM23.6014 16.5381L16.3973 10.6201L14.9497 11.9629C13.5166 13.2861 11.3211 13.1592 10.0424 11.748C8.74438 10.3125 8.84571 8.09082 10.2547 6.78223L14.2018 3.125H10.1582C9.74804 3.125 9.35719 3.29102 9.06768 3.58398L6.42826 6.25V17.1826H7.31128L11.6781 21.1816C13.0003 22.2705 14.9448 22.0654 16.0209 20.7275L16.0305 20.7178L16.8943 21.4746C17.6615 22.1094 18.7954 21.9873 19.4179 21.2109L20.933 19.3262L21.1936 19.541C21.8546 20.083 22.8293 19.9854 23.3649 19.3115L23.8233 18.7402C24.3638 18.0664 24.2624 17.085 23.6014 16.5381V16.5381Z" fill="white"/>
</g>
<defs>
<clipPath id="clip0_407:114">
<rect width="30.8817" height="25" fill="white" transform="translate(0.251923)"/>
</clipPath>
</defs>
</svg>
