<svg width="35" height="35" viewBox="0 0 35 35" fill="none" xmlns="http://www.w3.org/2000/svg">
<circle cx="17.5" cy="17.5" r="17.5" fill="#F2F2F2"/>
<path d="M14.7918 8.83325C13.25 8.83358 11.7684 9.43152 10.6583 10.5014C9.54821 11.5713 8.89603 13.0298 8.83882 14.5705C8.78162 16.1112 9.32385 17.6141 10.3516 18.7633C11.3793 19.9126 12.8125 20.6188 14.3499 20.7334C14.4647 19.0782 15.1742 17.5204 16.3474 16.3472C17.5206 15.174 19.0784 14.4646 20.7336 14.3498C20.6221 12.8501 19.9477 11.4482 18.8457 10.425C17.7436 9.40189 16.2955 8.83328 14.7918 8.83325ZM17.3401 14.1316L14.5901 16.8816C14.4612 17.0103 14.2865 17.0826 14.1043 17.0826C13.9221 17.0826 13.7473 17.0103 13.6184 16.8816L12.2434 15.5048C12.1183 15.375 12.049 15.2013 12.0507 15.0211C12.0524 14.8408 12.1247 14.6684 12.2523 14.541C12.3798 14.4136 12.5523 14.3414 12.7325 14.3399C12.9128 14.3384 13.0864 14.4078 13.216 14.5331L14.1052 15.4232L16.3684 13.159C16.4982 13.0338 16.6719 12.9646 16.8521 12.9663C17.0324 12.9679 17.2048 13.0403 17.3322 13.1678C17.4596 13.2954 17.5318 13.4678 17.5333 13.6481C17.5348 13.8283 17.4654 14.002 17.3401 14.1316Z" fill="#283766"/>
<path d="M15.25 21.2083C15.25 19.6281 15.8778 18.1126 16.9952 16.9952C18.1126 15.8778 19.6281 15.25 21.2083 15.25C22.7886 15.25 24.3041 15.8778 25.4215 16.9952C26.5389 18.1126 27.1667 19.6281 27.1667 21.2083C27.1667 22.7886 26.5389 24.3041 25.4215 25.4215C24.3041 26.5389 22.7886 27.1667 21.2083 27.1667C19.6281 27.1667 18.1126 26.5389 16.9952 25.4215C15.8778 24.3041 15.25 22.7886 15.25 21.2083ZM19.1156 19.1367C18.9874 19.2662 18.916 19.4413 18.9168 19.6234C18.9177 19.8056 18.9908 19.98 19.1202 20.1083L20.2339 21.2111L19.1183 22.3267C19.0508 22.3896 18.9966 22.4655 18.959 22.5498C18.9215 22.6342 18.9013 22.7252 18.8996 22.8175C18.898 22.9098 18.915 23.0015 18.9496 23.0871C18.9841 23.1727 19.0356 23.2505 19.1009 23.3158C19.1662 23.3811 19.2439 23.4325 19.3295 23.4671C19.4151 23.5017 19.5068 23.5187 19.5991 23.517C19.6915 23.5154 19.7825 23.4952 19.8668 23.4576C19.9512 23.4201 20.0271 23.3659 20.09 23.2983L21.2083 22.1809L22.3221 23.2983C22.4509 23.4274 22.6258 23.5 22.8082 23.5002C22.9906 23.5004 23.1656 23.4281 23.2947 23.2993C23.4238 23.1704 23.4964 22.9955 23.4966 22.8131C23.4967 22.6308 23.4244 22.4558 23.2956 22.3267L22.1818 21.2111L23.2928 20.1074C23.4186 19.9782 23.4885 19.8047 23.4875 19.6244C23.4866 19.4441 23.4149 19.2714 23.2878 19.1435C23.1607 19.0156 22.9885 18.9427 22.8082 18.9406C22.6279 18.9384 22.454 19.0072 22.3239 19.1321L21.2083 20.2403L20.0891 19.1312C19.9596 19.003 19.7845 18.9315 19.6023 18.9324C19.4201 18.9333 19.2457 19.0064 19.1174 19.1358L19.1156 19.1367Z" fill="#283766"/>
</svg>
