<svg width="10" height="10" viewBox="0 0 10 10" fill="none" xmlns="http://www.w3.org/2000/svg">
<path d="M4.6575 8.15379C4.69573 8.20931 4.74688 8.2547 4.80654 8.28606C4.86621 8.31742 4.9326 8.33381 5 8.33381C5.06741 8.33381 5.1338 8.31742 5.19347 8.28606C5.25313 8.2547 5.30428 8.20931 5.3425 8.15379L9.0925 2.73712C9.13591 2.67465 9.16136 2.60147 9.1661 2.52554C9.17084 2.44962 9.15468 2.37384 9.11937 2.30645C9.08407 2.23907 9.03097 2.18264 8.96585 2.14331C8.90073 2.10399 8.82608 2.08325 8.75 2.08337H1.25C1.17411 2.08369 1.09973 2.10469 1.03487 2.14411C0.970014 2.18353 0.91713 2.23989 0.881908 2.30712C0.846685 2.37435 0.830456 2.44991 0.834966 2.52568C0.839476 2.60144 0.864555 2.67455 0.907504 2.73712L4.6575 8.15379Z" fill="white"/>
</svg>
