<svg width="445" height="383" viewBox="0 0 445 383" fill="none" xmlns="http://www.w3.org/2000/svg">
<g clip-path="url(#clip0)">
<path d="M15.7601 41.4953C24.3996 41.4953 31.4033 34.4827 31.4033 25.8321C31.4033 17.1816 24.3996 10.169 15.7601 10.169C7.12059 10.169 0.11689 17.1816 0.11689 25.8321C0.11689 34.4827 7.12059 41.4953 15.7601 41.4953Z" fill="#FF6584"/>
<path d="M95.1614 97.0286V90.8583H71.4595V97.0286H66.7192V10.1692H15.9973V155.884H57.7125H66.7192H108.434V97.0286H95.1614Z" fill="#E6E6E6"/>
<path d="M270.977 81.1657C270.977 81.1657 270.945 81.1967 270.889 81.251L270.89 81.1657L270.887 81.2528C269.688 82.4203 256.338 95.6102 251.159 108.989C249.44 107.073 248.224 105.905 248.224 105.905C248.224 105.905 248.202 105.925 248.166 105.961L248.166 105.905L248.165 105.962C247.188 106.913 233.898 120.044 233.898 130.45C233.898 140.497 239.446 144.461 246.586 144.967L246.068 154.877H247.515L247.675 145.018C247.857 145.022 248.04 145.025 248.224 145.025C253.5 145.025 258.107 143.343 260.593 139.022C263.113 140.018 265.775 140.606 268.479 140.764L267.689 155.884H269.896L270.14 140.841C270.418 140.848 270.697 140.852 270.977 140.852C283.049 140.852 292.834 135.097 292.834 118.615C292.834 102.133 270.977 81.1657 270.977 81.1657Z" fill="#F2F2F2"/>
<path d="M218.885 91.4614V82.7891H192.339V91.4614H180.014V57.1585H168.163V43.8685H141.617V57.1585H129.292V111.01C127.505 108.77 125.588 106.637 123.552 104.623C123.552 104.623 123.531 104.643 123.494 104.679L123.495 104.623L123.493 104.68C122.516 105.631 109.226 118.762 109.226 129.168C109.226 139.214 114.774 143.179 121.915 143.685L121.396 153.595H122.844L123.003 143.736C123.186 143.74 123.368 143.743 123.552 143.743C125.495 143.767 127.431 143.493 129.292 142.93V155.884H230.736V91.4614H218.885Z" fill="#F2F2F2"/>
<path d="M423.143 81.7822C423.143 81.7822 423.111 81.8132 423.055 81.8675L423.055 81.7822L423.053 81.8693C421.812 83.0777 407.553 97.1658 402.811 111.012V104.148L357.303 35.325L311.796 104.148V155.884H402.811V129.135C405.719 137.278 412.502 140.804 420.645 141.381L419.854 156.5H422.062L422.306 141.458C422.584 141.464 422.863 141.468 423.143 141.468C435.214 141.468 445 135.714 445 119.232C445 102.75 423.143 81.7822 423.143 81.7822Z" fill="#F2F2F2"/>
<path d="M72.4074 174.547C105.526 174.547 132.373 172.069 132.373 169.013C132.373 165.956 105.526 163.478 72.4074 163.478C39.2893 163.478 12.4418 165.956 12.4418 169.013C12.4418 172.069 39.2893 174.547 72.4074 174.547Z" fill="#F2F2F2"/>
<path d="M404.945 241.59C419.715 241.59 431.688 240.485 431.688 239.122C431.688 237.759 419.715 236.654 404.945 236.654C390.175 236.654 378.201 237.759 378.201 239.122C378.201 240.485 390.175 241.59 404.945 241.59Z" fill="#F2F2F2"/>
<path d="M118.627 198.398C133.397 198.398 145.37 197.293 145.37 195.93C145.37 194.566 133.397 193.461 118.627 193.461C103.857 193.461 91.8833 194.566 91.8833 195.93C91.8833 197.293 103.857 198.398 118.627 198.398Z" fill="#F2F2F2"/>
<path d="M416.321 229.202C416.321 236.123 412.212 238.539 407.143 238.539C407.026 238.539 406.909 238.538 406.791 238.536C406.557 238.531 406.324 238.519 406.094 238.504C401.52 238.179 397.966 235.639 397.966 229.202C397.966 222.541 406.467 214.137 407.105 213.515L407.106 213.513C407.131 213.489 407.143 213.478 407.143 213.478C407.143 213.478 416.321 222.282 416.321 229.202Z" fill="#A5B8F0"/>
<path d="M406.809 237.481L410.165 232.784L406.8 237.996L406.791 238.536C406.557 238.531 406.324 238.519 406.094 238.504L406.456 231.58L406.453 231.526L406.459 231.516L406.493 230.862L403.12 225.637L406.504 230.371L406.512 230.51L406.785 225.279L403.897 219.88L406.821 224.361L407.105 213.514L407.106 213.478V213.513L407.059 222.066L409.934 218.675L407.047 222.803L406.971 227.487L409.656 222.992L406.96 228.176L406.917 230.78L410.815 224.523L406.903 231.689L406.809 237.481Z" fill="#3F3D56"/>
<path d="M49.8915 329.225C77.4458 329.225 99.783 327.163 99.783 324.62C99.783 322.077 77.4458 320.015 49.8915 320.015C22.3372 320.015 0 322.077 0 324.62C0 327.163 22.3372 329.225 49.8915 329.225Z" fill="#F2F2F2"/>
<path d="M71.1142 306.115C71.1142 319.025 63.4491 323.533 53.9929 323.533C53.7738 323.533 53.5551 323.531 53.3367 323.526C52.8986 323.517 52.4646 323.496 52.0359 323.467C43.5018 322.862 36.8715 318.122 36.8715 306.115C36.8715 293.688 52.7306 278.008 53.9219 276.848L53.924 276.846C53.9699 276.801 53.9929 276.779 53.9929 276.779C53.9929 276.779 71.1142 293.204 71.1142 306.115Z" fill="#A5B8F0"/>
<path d="M53.3691 321.558L59.6311 312.797L53.3534 322.52L53.3367 323.526C52.8986 323.517 52.4646 323.496 52.0359 323.467L52.7108 310.549L52.7056 310.449L52.7171 310.43L52.7807 309.21L46.4873 299.463L52.8005 308.295L52.8151 308.554L53.3252 298.795L47.9373 288.723L53.3909 297.082L53.9219 276.848L53.924 276.779V276.846L53.8354 292.801L59.1993 286.476L53.8135 294.176L53.6716 302.914L58.6798 294.528L53.6507 304.2L53.5714 309.058L60.8422 297.386L53.5443 310.753L53.3691 321.558Z" fill="#3F3D56"/>
<path d="M140.432 107.425C140.432 134.681 124.249 144.198 104.286 144.198C84.3241 144.198 68.1413 134.681 68.1413 107.425C68.1413 80.1684 104.286 45.4941 104.286 45.4941C104.286 45.4941 140.432 80.1684 140.432 107.425Z" fill="#A5B8F0"/>
<path d="M102.97 140.028L103.34 117.218L118.746 88.9967L103.398 113.639L103.564 103.382L114.182 82.965L103.608 100.668V100.668L103.908 82.2208L115.278 65.9662L103.955 79.3197L104.142 45.4939L102.966 90.2735L103.063 88.4262L91.5032 70.7093L102.878 91.9723L101.801 112.575L101.768 112.028L88.4424 93.3838L101.728 113.96L101.594 116.536L101.569 116.575L101.58 116.787L98.848 169.056H102.499L102.937 142.058L116.19 121.532L102.97 140.028Z" fill="#3F3D56"/>
<path d="M77.0449 107.425C77.0449 134.681 60.8621 144.198 40.8997 144.198C20.9373 144.198 4.75454 134.681 4.75454 107.425C4.75454 80.1684 40.8997 45.4941 40.8997 45.4941C40.8997 45.4941 77.0449 80.1684 77.0449 107.425Z" fill="#A5B8F0"/>
<path d="M39.583 140.028L39.9532 117.218L55.3589 88.9967L40.011 113.639L40.1774 103.382L50.7954 82.965L40.2215 100.668V100.668L40.5211 82.2208L51.8904 65.9662L40.568 79.3197L40.7548 45.4939L39.5797 90.2735L39.6764 88.4262L28.1165 70.7093L39.491 91.9723L38.414 112.575L38.3818 112.028L25.0557 93.3838L38.3415 113.96L38.2069 116.536L38.1827 116.575L38.1936 116.787L35.4612 169.056H39.1123L39.5503 142.058L52.8034 121.532L39.583 140.028Z" fill="#3F3D56"/>
<path d="M125.737 83.7452C125.737 120.602 103.854 133.471 76.8594 133.471C49.8654 133.471 27.9823 120.602 27.9823 83.7452C27.9823 46.8881 76.8595 0 76.8595 0C76.8595 0 125.737 46.8881 125.737 83.7452Z" fill="#F2F2F2"/>
<path d="M75.0788 127.833L75.5794 96.9873L96.4119 58.8261L75.6581 92.1484L75.8828 78.2789L90.2409 50.6699L75.9425 74.6085L76.3474 49.6632L91.7218 27.683L76.4109 45.7407L76.6635 0L75.0746 60.5524L75.2049 58.0544L59.5736 34.0973L74.9546 62.8497L73.4979 90.7092L73.4548 89.9697L55.4343 64.7582L73.4003 92.5822L73.2178 96.0661L73.1851 96.1183L73.2002 96.4045L69.5051 167.086H74.4422L75.0343 130.578L92.9562 102.823L75.0788 127.833Z" fill="#3F3D56"/>
<path d="M124.788 190.533C124.79 191.237 124.671 191.936 124.436 192.6C124.093 193.56 123.519 194.421 122.766 195.107C121.974 195.825 121.008 196.324 119.965 196.555C119.526 196.654 119.076 196.704 118.626 196.703C117.503 196.701 116.402 196.395 115.438 195.817C114.547 195.275 113.806 194.517 113.284 193.612C112.813 192.792 112.536 191.875 112.475 190.93C112.414 189.986 112.571 189.041 112.933 188.167C113.296 187.293 113.854 186.514 114.565 185.891C115.276 185.267 116.121 184.816 117.034 184.571C117.946 184.327 118.903 184.296 119.83 184.481C120.757 184.666 121.629 185.062 122.378 185.638C123.128 186.215 123.735 186.956 124.153 187.804C124.571 188.653 124.788 189.587 124.788 190.533V190.533Z" fill="#3F3D56"/>
<path d="M113.982 186.477L114.533 186.407L115.584 187.79L114.914 189.392L113.195 189.61L112.677 188.926L113.982 186.477Z" fill="#F2F2F2"/>
<path d="M117.435 193.037L115.714 193.257L114.664 191.874L115.335 190.272L117.056 190.053L118.106 191.435L117.435 193.037Z" fill="#F2F2F2"/>
<path d="M115.864 194.802L115.438 195.817C114.547 195.275 113.806 194.517 113.284 193.612L114.814 193.419L115.864 194.802Z" fill="#F2F2F2"/>
<path d="M119.396 188.269L117.675 188.488L116.625 187.106L117.296 185.504L119.017 185.285L120.066 186.668L119.396 188.269Z" fill="#F2F2F2"/>
<path d="M121.917 191.915L120.196 192.134L119.146 190.752L119.817 189.15L121.538 188.931L122.588 190.314L121.917 191.915Z" fill="#F2F2F2"/>
<path d="M120.346 195.643L119.965 196.554C119.526 196.654 119.076 196.704 118.626 196.703C118.167 196.703 117.709 196.652 117.262 196.549L116.906 196.081L117.576 194.479L119.295 194.26L120.346 195.643Z" fill="#F2F2F2"/>
<path d="M124.108 187.714L122.438 187.927L121.388 186.545L121.906 185.308C122.842 185.898 123.603 186.729 124.108 187.714Z" fill="#F2F2F2"/>
<path d="M124.436 192.6C124.093 193.56 123.519 194.421 122.766 195.107L122.228 194.398L122.898 192.796L124.436 192.6Z" fill="#F2F2F2"/>
<path d="M259.178 383C322.796 383 374.369 379.972 374.369 376.236C374.369 372.501 322.796 369.473 259.178 369.473C195.56 369.473 143.987 372.501 143.987 376.236C143.987 379.972 195.56 383 259.178 383Z" fill="#F2F2F2"/>
<path d="M202.584 356.824L178.282 378.656C167.385 373.871 160.15 365.73 156.478 354.322L180.78 332.49C180.933 346.836 188.352 354.815 202.584 356.824Z" fill="#E6E6E6"/>
<path d="M178.095 342.322L161.679 356.36L161.986 356.72L178.402 342.682L178.095 342.322Z" fill="#3F3D56"/>
<path d="M179.74 345.261L163.922 359.551L164.239 359.903L180.058 345.613L179.74 345.261Z" fill="#3F3D56"/>
<path d="M214.548 277.553L182.08 280.993C176.047 270.724 174.947 259.882 178.644 248.483L211.113 245.043C202.845 256.759 204.189 267.577 214.548 277.553Z" fill="#F2F2F2"/>
<path d="M203.185 251.436L181.667 253.185L181.706 253.657L203.223 251.908L203.185 251.436Z" fill="#3F3D56"/>
<path d="M202.799 254.783L181.619 257.087L181.67 257.559L202.85 255.254L202.799 254.783Z" fill="#3F3D56"/>
<path d="M184.855 208.646L163.149 184.225C167.971 173.333 176.131 166.122 187.539 162.491L209.245 186.913C194.918 187.008 186.919 194.404 184.855 208.646Z" fill="#E6E6E6"/>
<path d="M185.484 167.69L185.122 167.997L199.076 184.491L199.437 184.184L185.484 167.69Z" fill="#3F3D56"/>
<path d="M182.287 169.924L181.934 170.24L196.143 186.136L196.495 185.82L182.287 169.924Z" fill="#3F3D56"/>
<path d="M209.23 92.9509L187.061 105.766L218.585 160.436L240.753 147.621L209.23 92.9509Z" fill="#3F3D56"/>
<path d="M213.144 106.185L195.503 116.767L195.746 117.174L213.388 106.591L213.144 106.185Z" fill="#A5B8F0"/>
<path d="M215.951 110.108L198.31 120.69L198.553 121.097L216.194 110.515L215.951 110.108Z" fill="#A5B8F0"/>
<path d="M217.847 113.431L200.206 124.013L200.449 124.42L218.09 113.838L217.847 113.431Z" fill="#A5B8F0"/>
<path d="M220.691 117.702L203.05 128.285L203.294 128.692L220.935 118.109L220.691 117.702Z" fill="#A5B8F0"/>
<path d="M224.958 123.873L207.316 134.455L207.56 134.862L225.201 124.28L224.958 123.873Z" fill="#A5B8F0"/>
<path d="M289.633 162.217C289.633 162.217 301.835 156.34 310.518 158.531L289.633 102.131V96.3401L319.195 166.767C326.586 180.717 335.93 212.51 319.999 215.062C301.924 217.958 269.389 228.817 269.389 228.817L262.159 165.836L289.633 162.217Z" fill="#2F2E41"/>
<path d="M218.418 143.395C218.418 143.395 198.897 118.781 193.836 127.468C188.775 136.155 216.565 150.768 216.565 150.768L218.418 143.395Z" fill="#FFB9B9"/>
<path d="M224.925 144.119L216.972 139.775C216.972 139.775 211.911 152.806 211.911 154.977C211.911 157.149 219.864 157.873 219.864 157.873L224.925 144.119Z" fill="#D0CDE1"/>
<path d="M255.291 89.1009C265.673 89.1009 274.089 80.674 274.089 70.279C274.089 59.884 265.673 51.4572 255.291 51.4572C244.909 51.4572 236.493 59.884 236.493 70.279C236.493 80.674 244.909 89.1009 255.291 89.1009Z" fill="#FFB9B9"/>
<path d="M269.751 68.1073C269.751 68.1073 277.704 91.9965 283.488 93.4444C289.271 94.8922 261.075 105.751 261.075 105.751C261.075 105.751 252.399 85.4813 248.061 80.4139C243.723 75.3464 269.751 68.1073 269.751 68.1073Z" fill="#FFB9B9"/>
<path opacity="0.1" d="M314.938 207.823C330.522 205.327 321.92 174.849 314.62 160.464C315.281 160.969 315.874 161.558 316.384 162.217C323.614 171.627 338.074 212.167 319.999 215.063C301.924 217.958 269.389 228.817 269.389 228.817L268.406 220.249C277.702 217.26 300.764 210.094 314.938 207.823Z" fill="black"/>
<path d="M339.881 332.337C339.881 332.337 357.956 346.815 356.51 348.263C355.064 349.711 339.881 372.876 326.867 375.048C313.853 377.22 308.069 377.22 308.069 375.048C308.069 372.876 311.684 367.809 318.191 365.637C324.698 363.466 325.421 348.987 324.698 346.092C323.975 343.196 339.881 332.337 339.881 332.337Z" fill="#2F2E41"/>
<path d="M285.657 224.473L297.224 278.767C297.224 278.767 344.942 332.337 343.496 333.061C342.05 333.785 327.59 348.263 324.698 348.263C321.806 348.263 271.92 291.798 271.92 291.798L253.845 244.743L285.657 224.473Z" fill="#2F2E41"/>
<path opacity="0.1" d="M285.657 224.473L297.224 278.767C297.224 278.767 344.942 332.337 343.496 333.061C342.05 333.785 327.59 348.263 324.698 348.263C321.806 348.263 271.92 291.798 271.92 291.798L253.845 244.743L285.657 224.473Z" fill="black"/>
<path d="M297.224 207.099C297.224 207.099 291.44 231.713 275.535 248.363C259.629 265.013 252.399 299.037 252.399 299.037L236.493 367.085C236.493 367.085 208.296 363.466 209.742 356.226L224.925 296.141C224.925 296.141 242.277 212.891 251.676 207.099C261.075 201.308 297.224 207.099 297.224 207.099Z" fill="#2F2E41"/>
<path d="M235.047 361.294C235.047 361.294 239.385 375.048 236.493 376.496C233.601 377.944 182.268 380.84 179.376 370.705C179.376 370.705 177.93 365.637 189.498 365.637C201.066 365.637 213.357 354.779 213.357 354.779L235.047 361.294Z" fill="#2F2E41"/>
<path d="M256.737 102.855C256.737 102.855 275.535 84.0335 280.596 85.4813C285.657 86.9291 285.657 94.1683 285.657 94.1683C285.657 94.1683 301.562 96.3401 300.116 148.462C298.67 200.584 313.13 206.375 308.069 209.271C303.008 212.167 245.169 225.197 243 212.167C240.831 199.136 241.554 149.186 247.338 133.26C253.122 117.334 260.352 107.199 256.737 102.855Z" fill="#575A89"/>
<path d="M280.596 107.199C280.596 107.199 302.285 117.334 289.995 136.879C277.704 156.425 268.305 177.419 255.291 176.695C242.277 175.971 222.033 163.664 216.249 163.664C210.465 163.664 218.418 142.671 222.756 141.947C227.094 141.223 247.338 153.53 247.338 153.53C247.338 153.53 254.568 104.303 280.596 107.199Z" fill="#575A89"/>
<path d="M266.135 72.3589C264.532 72.2631 262.966 72.8057 261.373 73.0174C255.676 73.7748 249.749 69.6353 248.491 64.0201C248.39 63.2724 248.168 62.5462 247.832 61.8706C246.955 60.4372 244.958 60.1638 243.312 60.4935C241.666 60.8231 240.105 61.5945 238.429 61.6826C235.84 61.8186 233.355 60.223 231.976 58.0256C230.596 55.8283 230.206 53.1245 230.392 50.5358L231.633 51.8399C232.137 50.7718 232.332 49.5834 232.195 48.4099C232.852 48.2346 233.544 48.2312 234.203 48.4001C234.862 48.569 235.467 48.9045 235.96 49.3746C237.054 49.4912 236.228 47.3424 237.041 46.5998C237.382 46.2889 237.904 46.3476 238.364 46.352C240.692 46.3745 242.575 44.5917 244.41 43.1566C247.588 40.6756 251.304 38.9781 255.259 38.2014C257.888 37.688 260.683 37.6055 263.176 38.5856C265.223 39.3905 266.936 40.8564 268.522 42.3827C272.424 46.1402 275.88 50.5552 277.504 55.7269C278.824 59.9629 278.861 64.4955 277.611 68.7527C276.957 70.9637 274.985 78.5355 272.099 78.7118C268.472 78.9334 270.65 72.6286 266.135 72.3589Z" fill="#2F2E41"/>
</g>
<defs>
<clipPath id="clip0">
<rect width="445" height="383" fill="white"/>
</clipPath>
</defs>
</svg>
