<svg width="477" height="348" viewBox="0 0 477 348" fill="none" xmlns="http://www.w3.org/2000/svg">
<g clip-path="url(#clip0)">
<path opacity="0.5" d="M468.918 278.051C457.103 302.5 433.101 318.849 408.235 329.631C388.327 338.206 367.282 343.837 345.76 346.35C341.638 346.84 337.503 347.221 333.354 347.491C322.753 348.184 312.117 348.172 301.518 347.456C295.142 347.031 288.789 346.351 282.457 345.417C260.458 342.199 239.011 335.936 218.728 326.807C212.874 324.163 207.139 321.277 201.522 318.149C192.141 312.934 183.152 307.039 174.628 300.511C172.742 299.066 170.88 297.589 169.041 296.081L168.285 295.461C166.839 294.266 165.407 293.044 163.952 291.857C161.535 289.826 158.968 287.98 156.275 286.335C156.092 286.228 155.91 286.121 155.723 286.018C155.225 285.728 154.718 285.456 154.202 285.197C153.139 284.66 152.049 284.177 150.937 283.752C145.799 281.789 140.297 281.076 134.719 281.196C133.794 281.196 132.868 281.258 131.939 281.321C130.64 281.41 129.336 281.544 128.038 281.713L127.557 281.78C123.418 282.368 119.326 283.249 115.311 284.417C109.11 286.201 103.021 288.431 96.8911 290.443C94.2889 291.304 91.6822 292.125 89.0533 292.861L88.4751 293.021C84.7361 294.076 80.9301 294.875 77.0832 295.412C68.3413 296.533 59.4625 295.816 51.0122 293.307L50.7186 293.222L50.1759 293.062L49.4331 292.83C48.1876 292.437 46.9524 292.007 45.7277 291.54L44.9849 291.255C43.7987 290.797 42.6377 290.305 41.5019 289.778L40.759 289.439C39.5729 288.886 38.4119 288.302 37.2761 287.686C36.8669 287.472 36.4621 287.24 36.0617 287.022C34.8518 286.344 33.6656 285.633 32.5032 284.889C31.2695 284.101 30.0626 283.279 28.8823 282.423C28.3367 282.03 27.7969 281.627 27.2632 281.214C24.1861 278.854 21.3046 276.247 18.647 273.421C18.5002 273.274 18.3623 273.122 18.2244 272.975C17.5171 272.208 16.8232 271.427 16.1515 270.628C15.9024 270.334 15.6533 270.04 15.4087 269.736C14.6109 268.761 13.8414 267.763 13.1 266.743C12.9888 266.596 12.8821 266.444 12.7753 266.297C9.73601 262.082 7.21633 257.514 5.27117 252.692C5.20889 252.545 5.15107 252.393 5.09769 252.246C4.50459 250.714 3.96339 249.157 3.47409 247.575C3.27392 246.915 3.08264 246.237 2.91361 245.577C2.85578 245.381 2.8024 245.18 2.75347 244.984C0.298059 235.291 0.0178223 225.214 0.0178223 215.195C0.0178223 214.026 0.0178223 212.859 0.0178223 211.693C0.0889937 195.487 0.338093 179.005 2.72234 163.022C2.72234 162.911 2.75347 162.799 2.77127 162.692C3.56926 157.311 4.65471 151.978 6.02292 146.714C7.45488 141.19 9.28495 135.779 11.4987 130.521C16.9833 117.585 24.959 105.813 33.8154 94.9022C44.4911 81.7742 56.7237 69.6589 70.3486 59.6624C72.3058 58.226 74.2897 56.8313 76.3003 55.4782L77.23 54.8671C77.5547 54.6485 77.8794 54.421 78.2041 54.2292C78.8714 53.7831 79.5386 53.3638 80.2147 52.94L80.9709 52.4672L82.4121 51.5751L82.857 51.3208L83.6265 50.8747L84.3872 50.4286C85.2768 49.9023 86.1768 49.3878 87.0872 48.8852C90.975 46.7114 94.9546 44.7249 99.0262 42.9257C100.227 42.3934 101.436 41.8804 102.652 41.3867C108.172 39.1322 113.842 37.2675 119.621 35.8063C121.757 35.2651 123.905 34.7893 126.067 34.3789C128.617 33.8853 131.181 33.4764 133.758 33.1522C137.859 32.6348 141.983 32.3266 146.115 32.2288C175.171 31.5196 204.52 41.0031 227.291 59.1806C236.365 66.4249 244.519 75.0029 254.709 80.5565C263.606 85.3919 274.019 87.3948 283.547 83.5898C291.421 80.445 296.545 78.8837 305.388 79.361C323.686 80.3946 341.726 84.1779 358.904 90.5842C359.598 90.8385 360.292 91.1016 360.982 91.3648C405.78 108.561 444.297 142.708 464.305 186.588C464.833 187.748 465.347 188.917 465.848 190.094C477.783 218.041 482.089 250.805 468.918 278.051Z" fill="#4C546E"/>
<path opacity="0.1" d="M89.04 123.736V292.87L88.4617 293.03C84.7227 294.085 80.9167 294.884 77.0698 295.421C68.3279 296.542 59.4492 295.825 50.9988 293.316L50.7052 293.231L50.1625 293.07L49.4197 292.838C48.1742 292.446 46.9391 292.016 45.7143 291.549L44.9715 291.264C43.7853 290.806 42.6243 290.314 41.4885 289.787L40.7457 289.448C39.5595 288.895 38.3985 288.311 37.2627 287.695C36.8535 287.481 36.4487 287.249 36.0484 287.031C34.8384 286.353 33.6522 285.642 32.4898 284.898C31.2561 284.11 30.0492 283.288 28.8689 282.432C28.3233 282.039 27.7836 281.636 27.2498 281.223C24.1727 278.863 21.2912 276.256 18.6336 273.43C18.4868 273.283 18.3489 273.131 18.211 272.984C17.5037 272.217 16.8098 271.436 16.1381 270.637C15.889 270.343 15.6399 270.049 15.3953 269.745C14.5976 268.77 13.828 267.772 13.0867 266.752C12.9755 266.605 12.8687 266.453 12.7619 266.306C9.72264 262.091 7.20296 257.523 5.2578 252.701C5.19552 252.554 5.1377 252.402 5.08432 252.255C4.49122 250.723 3.95002 249.166 3.46072 247.584C3.26055 246.924 3.06928 246.246 2.90024 245.586C2.84242 245.39 2.78904 245.189 2.74011 244.993C0.284692 235.299 0.00445557 225.223 0.00445557 215.204C0.00445557 214.035 0.00445557 212.868 0.00445557 211.702C0.075627 195.496 0.324726 179.014 2.70897 163.031C2.70897 162.92 2.74011 162.808 2.7579 162.701C3.55589 157.32 4.64134 151.986 6.00955 146.723H51.4347V123.736H60.4913V105.273H79.9834V123.736H89.04Z" fill="#A5B8F0"/>
<path opacity="0.5" d="M468.918 278.051C457.103 302.5 433.101 318.849 408.235 329.631C388.326 338.206 367.282 343.837 345.76 346.35C341.638 346.84 337.502 347.221 333.354 347.491C322.753 348.184 312.117 348.172 301.518 347.456C295.142 347.03 288.789 346.351 282.457 345.417C260.458 342.199 239.011 335.936 218.728 326.807C212.874 324.163 207.139 321.277 201.522 318.149C192.141 312.934 183.152 307.039 174.628 300.511C172.742 299.066 170.88 297.589 169.041 296.081L168.285 295.461C166.839 294.266 165.407 293.044 163.952 291.857C161.535 289.826 158.968 287.98 156.275 286.335C156.092 286.228 155.91 286.121 155.723 286.018C155.225 285.728 154.718 285.456 154.202 285.197C153.139 284.66 152.049 284.177 150.937 283.752V214.561H233.491V229.964H269.722V117.295H312.367V162.349H333.461V135.673H350.889V107.178H358.895V90.5842C359.589 90.8385 360.283 91.1016 360.973 91.3648V107.178H368.766V135.691H386.181V162.366H411.86V263.995H452.677V190.085H465.831C477.783 218.041 482.089 250.805 468.918 278.051Z" fill="#A5B8F0"/>
<path opacity="0.5" d="M301.527 134.25H282.466V153.365H301.527V134.25Z" fill="#A5B8F0"/>
<path opacity="0.5" d="M301.527 173.871H282.466V192.985H301.527V173.871Z" fill="#A5B8F0"/>
<path opacity="0.5" d="M301.527 213.495H282.466V232.61H301.527V213.495Z" fill="#A5B8F0"/>
<path opacity="0.5" d="M301.527 253.12H282.466V272.234H301.527V253.12Z" fill="#A5B8F0"/>
<path opacity="0.5" d="M301.527 292.74H282.466V311.855H301.527V292.74Z" fill="#A5B8F0"/>
<path opacity="0.5" d="M301.527 332.356V347.451C295.151 347.026 288.797 346.347 282.466 345.413V332.356H301.527Z" fill="#A5B8F0"/>
<path opacity="0.1" d="M223.941 239.265H157.222V247.923H223.941V239.265Z" fill="#A5B8F0"/>
<path opacity="0.1" d="M223.941 265.561H157.222V274.219H223.941V265.561Z" fill="#A5B8F0"/>
<path opacity="0.1" d="M223.941 291.857V300.511H174.637C172.751 299.066 170.889 297.589 169.05 296.081L168.294 295.461C166.848 294.266 165.416 293.044 163.961 291.857H223.941Z" fill="#A5B8F0"/>
<path opacity="0.1" d="M223.941 318.149V326.807H218.737C212.883 324.163 207.148 321.277 201.531 318.149H223.941Z" fill="#A5B8F0"/>
<path opacity="0.5" d="M345.769 186.008H333.363V198.449H345.769V186.008Z" fill="#A5B8F0"/>
<path opacity="0.1" d="M77.0965 128.028H64.6904V140.469H77.0965V128.028Z" fill="#A5B8F0"/>
<path opacity="0.1" d="M77.0965 156.933H64.6904V169.374H77.0965V156.933Z" fill="#A5B8F0"/>
<path opacity="0.1" d="M77.0965 185.834H64.6904V198.275H77.0965V185.834Z" fill="#A5B8F0"/>
<path opacity="0.1" d="M77.0965 214.74H64.6904V227.181H77.0965V214.74Z" fill="#A5B8F0"/>
<path opacity="0.1" d="M77.0965 243.646H64.6904V256.086H77.0965V243.646Z" fill="#A5B8F0"/>
<path opacity="0.1" d="M77.0965 272.547H64.6904V284.988H77.0965V272.547Z" fill="#A5B8F0"/>
<path opacity="0.5" d="M393.138 186.008H380.732V198.449H393.138V186.008Z" fill="#A5B8F0"/>
<path opacity="0.5" d="M345.769 216.698H333.363V229.139H345.769V216.698Z" fill="#A5B8F0"/>
<path opacity="0.5" d="M393.138 216.698H380.732V229.139H393.138V216.698Z" fill="#A5B8F0"/>
<path opacity="0.5" d="M345.769 247.392H333.363V259.833H345.769V247.392Z" fill="#A5B8F0"/>
<path opacity="0.5" d="M393.138 247.392H380.732V259.833H393.138V247.392Z" fill="#A5B8F0"/>
<path opacity="0.5" d="M345.769 278.087H333.363V290.528H345.769V278.087Z" fill="#A5B8F0"/>
<path opacity="0.5" d="M393.138 278.087H380.732V290.528H393.138V278.087Z" fill="#A5B8F0"/>
<path opacity="0.5" d="M345.769 308.777H333.363V321.218H345.769V308.777Z" fill="#A5B8F0"/>
<path opacity="0.5" d="M393.138 308.777H380.732V321.218H393.138V308.777Z" fill="#A5B8F0"/>
<path opacity="0.5" d="M333.363 347.491V339.467H345.769V346.35L333.363 347.491Z" fill="#A5B8F0"/>
<path opacity="0.1" d="M2.71344 162.705V169.843H50.1626V162.705H2.71344ZM6.93925 169.397H3.45629V163.151H6.93925V169.397ZM11.1651 169.397H7.6821V163.151H11.1651V169.397ZM15.3909 169.397H11.9079V163.151H15.3909V169.397ZM19.6167 169.397H16.1337V163.151H19.6167V169.397ZM23.8425 169.397H20.3595V163.151H23.8425V169.397ZM28.0683 169.397H24.5853V163.151H28.0683V169.397ZM32.2941 169.397H28.8111V163.151H32.2941V169.397ZM36.5199 169.397H33.0369V163.151H36.5199V169.397ZM40.7457 169.397H37.2627V163.151H40.7457V169.397ZM44.9715 169.397H41.4885V163.151H44.9715V169.397ZM49.4197 169.397H45.7143V163.151H49.4197V169.397Z" fill="#A5B8F0"/>
<path opacity="0.1" d="M2.71344 183.43V190.545H50.1626V183.43H2.71344ZM6.93925 190.099H3.45629V183.876H6.93925V190.099ZM11.1651 190.099H7.6821V183.876H11.1651V190.099ZM15.3909 190.099H11.9079V183.876H15.3909V190.099ZM19.6167 190.099H16.1337V183.876H19.6167V190.099ZM23.8425 190.099H20.3595V183.876H23.8425V190.099ZM28.0683 190.099H24.5853V183.876H28.0683V190.099ZM32.2941 190.099H28.8111V183.876H32.2941V190.099ZM36.5199 190.099H33.0369V183.876H36.5199V190.099ZM40.7457 190.099H37.2627V183.876H40.7457V190.099ZM44.9715 190.099H41.4885V183.876H44.9715V190.099ZM49.4197 190.099H45.7143V183.876H49.4197V190.099Z" fill="#A5B8F0"/>
<path opacity="0.1" d="M2.71344 204.15V211.265H50.1626V204.15H2.71344ZM6.93925 210.819H3.45629V204.596H6.93925V210.819ZM11.1651 210.819H7.6821V204.596H11.1651V210.819ZM15.3909 210.819H11.9079V204.596H15.3909V210.819ZM19.6167 210.819H16.1337V204.596H19.6167V210.819ZM23.8425 210.819H20.3595V204.596H23.8425V210.819ZM28.0683 210.819H24.5853V204.596H28.0683V210.819ZM32.2941 210.819H28.8111V204.596H32.2941V210.819ZM36.5199 210.819H33.0369V204.596H36.5199V210.819ZM40.7457 210.819H37.2627V204.596H40.7457V210.819ZM44.9715 210.819H41.4885V204.596H44.9715V210.819ZM49.4197 210.819H45.7143V204.596H49.4197V210.819Z" fill="#A5B8F0"/>
<path opacity="0.1" d="M2.71344 224.852V231.99H50.1626V224.852H2.71344ZM6.93925 231.544H3.45629V225.298H6.93925V231.544ZM11.1651 231.544H7.6821V225.298H11.1651V231.544ZM15.3909 231.544H11.9079V225.298H15.3909V231.544ZM19.6167 231.544H16.1337V225.298H19.6167V231.544ZM23.8425 231.544H20.3595V225.298H23.8425V231.544ZM28.0683 231.544H24.5853V225.298H28.0683V231.544ZM32.2941 231.544H28.8111V225.298H32.2941V231.544ZM36.5199 231.544H33.0369V225.298H36.5199V231.544ZM40.7457 231.544H37.2627V225.298H40.7457V231.544ZM44.9715 231.544H41.4885V225.298H44.9715V231.544ZM49.4197 231.544H45.7143V225.298H49.4197V231.544Z" fill="#A5B8F0"/>
<path opacity="0.1" d="M2.89581 245.59C3.06485 246.26 3.25612 246.929 3.45629 247.589V246.036H6.93924V252.282H5.07989C5.13327 252.429 5.19109 252.58 5.25337 252.728H50.1804V245.59H2.89581ZM11.165 252.282H7.68209V246.036H11.165V252.282ZM15.3909 252.282H11.9079V246.036H15.3909V252.282ZM19.6167 252.282H16.1337V246.036H19.6167V252.282ZM23.8425 252.282H20.3595V246.036H23.8425V252.282ZM28.0683 252.282H24.5853V246.036H28.0683V252.282ZM32.2941 252.282H28.8111V246.036H32.2941V252.282ZM36.5199 252.282H33.0369V246.036H36.5199V252.282ZM40.7457 252.282H37.2627V246.036H40.7457V252.282ZM44.9715 252.282H41.4885V246.036H44.9715V252.282ZM49.4197 252.282H45.7143V246.036H49.4197V252.282Z" fill="#A5B8F0"/>
<path opacity="0.1" d="M12.7575 266.311C12.8643 266.458 12.971 266.609 13.0822 266.757H15.3909V269.75C15.6355 270.049 15.8846 270.343 16.1337 270.642V266.761H19.6167V273.006H18.2066C18.3445 273.153 18.4824 273.305 18.6292 273.452H50.1626V266.315L12.7575 266.311ZM23.8425 273.002H20.3595V266.757H23.8425V273.002ZM28.0683 273.002H24.5853V266.757H28.0683V273.002ZM32.2941 273.002H28.8111V266.757H32.2941V273.002ZM36.5199 273.002H33.0369V266.757H36.5199V273.002ZM40.7457 273.002H37.2627V266.757H40.7457V273.002ZM44.9715 273.002H41.4885V266.757H44.9715V273.002ZM49.4197 273.002H45.7143V266.757H49.4197V273.002Z" fill="#A5B8F0"/>
<path opacity="0.1" d="M36.0483 287.031C36.4487 287.258 36.8535 287.477 37.2627 287.695V287.477H40.7457V289.448L41.4885 289.787V287.477H44.9715V291.264L45.7143 291.549V287.477H49.4197V292.83L50.1625 293.062V287.031H36.0483Z" fill="#A5B8F0"/>
<path opacity="0.1" d="M182.359 100.92C182.359 100.92 171.755 100.277 173.018 107.727C172.953 108.105 173.009 108.495 173.179 108.839C173.348 109.184 173.622 109.466 173.961 109.645C173.961 109.645 173.961 109.092 175.046 109.279C175.427 109.342 175.813 109.36 176.198 109.333C176.719 109.298 177.214 109.095 177.608 108.753C177.608 108.753 180.589 107.517 181.75 102.633C181.75 102.633 182.604 101.567 182.573 101.294L180.793 102.062C180.793 102.062 181.407 103.355 180.927 104.43C180.927 104.43 180.869 102.111 180.522 102.164C180.455 102.164 179.592 102.61 179.592 102.61C179.592 102.61 180.646 104.867 179.85 106.505C179.85 106.505 180.153 103.73 179.268 102.775L177.978 103.52C177.978 103.52 179.21 105.849 178.373 107.749C178.373 107.749 178.591 104.836 177.715 103.703L176.572 104.595C176.572 104.595 177.728 106.888 177.017 108.467C177.017 108.467 176.923 105.073 176.318 104.814C175.884 105.181 175.497 105.6 175.166 106.063C175.166 106.063 175.958 107.727 175.469 108.606C175.469 108.606 175.166 106.348 174.917 106.335C174.917 106.335 173.925 107.834 173.823 108.86C173.869 107.908 174.163 106.985 174.677 106.183C174.104 106.292 173.575 106.567 173.156 106.973C173.156 106.973 173.311 105.916 174.935 105.822C174.935 105.822 175.758 104.689 175.98 104.618C175.98 104.618 174.374 104.484 173.4 104.917C173.4 104.917 174.259 103.917 176.274 104.372L177.399 103.449C177.399 103.449 175.286 103.159 174.392 103.48C174.392 103.48 175.42 102.588 177.702 103.239L178.929 102.503C177.986 102.296 177.021 102.212 176.056 102.254C176.056 102.254 177.186 101.642 179.29 102.307L180.179 101.91C180.179 101.91 178.845 101.651 178.476 101.611C178.107 101.571 178.067 101.464 178.067 101.464C178.902 101.324 179.76 101.42 180.544 101.741C180.544 101.741 182.39 101.036 182.359 100.92Z" fill="#A5B8F0"/>
<path opacity="0.1" d="M154.522 137.172C154.522 137.172 150.897 147.182 158.379 148.096C158.721 148.265 159.108 148.322 159.485 148.257C159.861 148.192 160.207 148.009 160.474 147.735C160.474 147.735 159.953 147.561 160.434 146.584C160.602 146.237 160.73 145.872 160.816 145.496C160.929 144.985 160.873 144.451 160.656 143.975C160.656 143.975 160.323 140.759 155.981 138.256C155.981 138.256 155.207 137.128 154.936 137.083L155.158 139.023C155.158 139.023 156.568 138.8 157.462 139.568C157.462 139.568 155.238 138.965 155.18 139.313C155.18 139.38 155.345 140.335 155.345 140.335C155.345 140.335 157.8 139.96 159.139 141.191C159.139 141.191 156.568 140.112 155.407 140.696L155.754 142.115C155.754 142.115 158.33 141.597 159.909 142.935C159.909 142.935 157.187 141.905 155.852 142.422L156.381 143.761C156.381 143.761 158.904 143.315 160.211 144.425C160.211 144.425 156.938 143.533 156.524 144.06C156.752 144.579 157.041 145.069 157.387 145.518C157.387 145.518 159.206 145.233 159.904 145.964C159.904 145.964 157.658 145.612 157.578 145.844C157.578 145.844 158.73 147.227 159.682 147.628C158.788 147.311 157.992 146.765 157.373 146.045C157.314 146.628 157.427 147.216 157.698 147.735C157.698 147.735 156.728 147.289 157.098 145.706C157.098 145.706 156.244 144.595 156.244 144.367C156.244 144.367 155.656 145.871 155.799 146.932C155.799 146.932 155.087 145.821 156.092 144.015L155.532 142.677C155.532 142.677 154.642 144.626 154.705 145.581C154.705 145.581 154.153 144.336 155.416 142.324L155.065 140.937C154.599 141.78 154.245 142.679 154.011 143.613C154.011 143.613 153.744 142.351 154.976 140.518L154.847 139.563C154.847 139.563 154.224 140.759 154.077 141.12C153.931 141.481 153.819 141.468 153.819 141.468C153.922 140.624 154.256 139.826 154.785 139.162C154.785 139.162 154.642 137.172 154.522 137.172Z" fill="#A5B8F0"/>
<path opacity="0.1" d="M224.817 128.732C224.817 128.732 221.196 138.76 228.674 139.652C229.018 139.821 229.406 139.877 229.783 139.811C230.16 139.745 230.507 139.562 230.773 139.287C230.773 139.287 230.249 139.113 230.733 138.14C230.903 137.793 231.03 137.426 231.112 137.047C231.225 136.537 231.171 136.003 230.956 135.526C230.956 135.526 230.622 132.31 226.281 129.807C226.281 129.807 225.502 128.683 225.231 128.639L225.458 130.575C225.458 130.575 226.868 130.356 227.762 131.123C227.762 131.123 225.538 130.521 225.476 130.865C225.476 130.936 225.64 131.886 225.64 131.886C225.64 131.886 228.096 131.516 229.439 132.743C229.439 132.743 226.868 131.668 225.703 132.247L226.054 133.67C226.054 133.67 228.629 133.149 230.209 134.491C230.209 134.491 227.482 133.456 226.147 133.974L226.677 135.312C226.677 135.312 229.199 134.866 230.507 135.977C230.507 135.977 227.237 135.085 226.819 135.615C227.054 136.137 227.353 136.627 227.709 137.074C227.709 137.074 229.524 136.784 230.226 137.52C230.226 137.52 227.98 137.168 227.9 137.404C227.9 137.404 229.048 138.782 230 139.188C229.106 138.873 228.311 138.326 227.695 137.605C227.636 138.188 227.748 138.775 228.016 139.295C228.016 139.295 227.05 138.849 227.42 137.27C227.42 137.27 226.565 136.155 226.561 135.932C226.561 135.932 225.978 137.44 226.116 138.497C226.116 138.497 225.404 137.391 226.41 135.58L225.849 134.241C225.849 134.241 224.96 136.191 225.022 137.141C225.022 137.141 224.47 135.901 225.734 133.889L225.378 132.497C224.912 133.34 224.558 134.24 224.324 135.174C224.324 135.174 224.061 133.911 225.293 132.078L225.164 131.123C225.164 131.123 224.542 132.319 224.39 132.68C224.239 133.042 224.132 133.028 224.132 133.028C224.238 132.185 224.573 131.386 225.102 130.722C225.102 130.722 224.942 128.737 224.817 128.732Z" fill="#A5B8F0"/>
<path opacity="0.1" d="M124.332 210.578C124.332 210.578 120.707 220.592 128.189 221.507C128.532 221.676 128.919 221.732 129.296 221.666C129.672 221.6 130.018 221.417 130.284 221.141C130.284 221.141 129.763 220.967 130.244 219.995C130.415 219.647 130.543 219.28 130.626 218.902C130.741 218.391 130.685 217.856 130.466 217.381C130.466 217.381 130.133 214.164 125.791 211.666C125.791 211.666 125.017 210.538 124.746 210.493L124.968 212.429C124.968 212.429 126.383 212.211 127.272 212.978C127.272 212.978 125.048 212.376 124.99 212.719C124.99 212.791 125.155 213.741 125.155 213.741C125.155 213.741 127.61 213.37 128.949 214.597C128.949 214.597 126.378 213.522 125.217 214.102L125.564 215.525C125.564 215.525 128.14 215.003 129.719 216.346C129.719 216.346 126.997 215.311 125.662 215.828L126.191 217.167C126.191 217.167 128.714 216.72 130.021 217.831C130.021 217.831 126.752 216.939 126.334 217.47C126.562 217.989 126.851 218.479 127.197 218.929C127.197 218.929 129.016 218.639 129.719 219.375C129.719 219.375 127.468 219.022 127.388 219.259C127.388 219.259 128.54 220.637 129.492 221.043C128.598 220.728 127.802 220.184 127.183 219.464C127.125 220.046 127.237 220.632 127.508 221.15C127.508 221.15 126.538 220.704 126.908 219.125C126.908 219.125 126.058 218.01 126.054 217.787C126.054 217.787 125.466 219.294 125.609 220.352C125.609 220.352 124.897 219.245 125.902 217.434L125.342 216.096C125.342 216.096 124.452 218.045 124.519 218.995C124.519 218.995 123.967 217.755 125.231 215.744L124.875 214.356C124.408 215.198 124.054 216.098 123.821 217.033C123.821 217.033 123.554 215.766 124.786 213.937L124.657 212.978C124.657 212.978 124.034 214.173 123.887 214.535C123.74 214.896 123.629 214.883 123.629 214.883C123.732 214.038 124.068 213.24 124.599 212.576C124.599 212.576 124.452 210.578 124.332 210.578Z" fill="#A5B8F0"/>
<path opacity="0.1" d="M109.947 116.193C109.947 116.193 106.326 126.203 113.803 127.118C114.147 127.286 114.534 127.342 114.911 127.277C115.288 127.212 115.635 127.03 115.903 126.756C115.903 126.756 115.378 126.582 115.863 125.605C116.03 125.257 116.157 124.89 116.241 124.513C116.355 124.003 116.3 123.471 116.085 122.996C116.085 122.996 115.751 119.78 111.406 117.277C111.406 117.277 110.632 116.149 110.36 116.104L110.587 118.044C110.587 118.044 111.997 117.821 112.887 118.589C112.887 118.589 110.663 117.986 110.605 118.334C110.605 118.401 110.769 119.356 110.769 119.356C110.769 119.356 113.225 118.981 114.568 120.212C114.568 120.212 111.997 119.133 110.832 119.717L111.179 121.136C111.179 121.136 113.754 120.614 115.338 121.957C115.338 121.957 112.611 120.922 111.277 121.444L111.806 122.782C111.806 122.782 114.328 122.336 115.636 123.451C115.636 123.451 112.366 122.559 111.948 123.085C112.176 123.605 112.466 124.094 112.811 124.544C112.811 124.544 114.631 124.258 115.333 124.99C115.333 124.99 113.087 124.637 113.007 124.869C113.007 124.869 114.155 126.252 115.107 126.654C114.213 126.335 113.418 125.79 112.798 125.07C112.739 125.653 112.852 126.241 113.123 126.761C113.123 126.761 112.153 126.315 112.527 124.731C112.527 124.731 111.672 123.62 111.668 123.393C111.668 123.393 111.085 124.896 111.223 125.958C111.223 125.958 110.507 124.847 111.517 123.041L110.952 121.702C110.952 121.702 110.062 123.652 110.129 124.606C110.129 124.606 109.577 123.362 110.841 121.35L110.485 119.963C110.019 120.805 109.665 121.705 109.431 122.639C109.431 122.639 109.168 121.377 110.396 119.543L110.271 118.589C110.271 118.589 109.644 119.784 109.497 120.141C109.351 120.498 109.239 120.493 109.239 120.493C109.342 119.649 109.678 118.85 110.209 118.187C110.209 118.187 110.071 116.193 109.947 116.193Z" fill="#A5B8F0"/>
<path opacity="0.1" d="M136.832 170.704C136.832 170.704 139.63 180.963 146.266 177.395C146.643 177.334 146.992 177.156 147.262 176.885C147.532 176.615 147.71 176.265 147.77 175.887C147.77 175.887 147.245 176.047 147.08 174.972C147.018 174.591 146.91 174.218 146.76 173.862C146.563 173.377 146.211 172.973 145.759 172.711C145.759 172.711 143.637 170.275 138.642 170.739C138.642 170.739 137.361 170.271 137.112 170.391L138.411 171.841C138.411 171.841 139.438 170.846 140.608 170.949C140.608 170.949 138.433 171.752 138.593 172.06C138.629 172.122 139.314 172.8 139.314 172.8C139.314 172.8 141.093 171.074 142.908 171.301C142.908 171.301 140.19 171.908 139.576 173.059L140.675 174.018C140.675 174.018 142.481 172.104 144.545 172.283C144.545 172.283 141.72 173.014 140.928 174.21L142.138 175.008C142.138 175.008 143.918 173.175 145.652 173.34C145.652 173.34 142.476 174.513 142.427 175.173C142.913 175.466 143.433 175.698 143.975 175.865C143.975 175.865 145.31 174.58 146.284 174.763C146.284 174.763 144.242 175.775 144.314 176.012C144.314 176.012 146.048 176.458 147.049 176.244C146.138 176.503 145.175 176.518 144.256 176.288C144.542 176.799 144.972 177.213 145.492 177.479C145.492 177.479 144.442 177.671 143.838 176.168C143.838 176.168 142.503 175.753 142.361 175.566C142.361 175.566 142.752 177.136 143.473 177.921C143.473 177.921 142.254 177.426 142.036 175.365L140.804 174.593C140.804 174.593 141.209 176.694 141.796 177.439C141.796 177.439 140.63 176.743 140.506 174.37L139.42 173.442C139.526 174.405 139.756 175.35 140.105 176.253C140.105 176.253 139.167 175.361 139.118 173.166L138.464 172.457C138.464 172.457 138.642 173.795 138.727 174.174C138.811 174.553 138.727 174.62 138.727 174.62C138.326 173.871 138.141 173.024 138.193 172.176C138.193 172.176 136.934 170.637 136.832 170.704Z" fill="#A5B8F0"/>
<path opacity="0.1" d="M212.736 179.866C212.736 179.866 215.534 190.126 222.166 186.557C222.544 186.498 222.894 186.321 223.165 186.05C223.436 185.779 223.615 185.428 223.674 185.049C223.674 185.049 223.145 185.21 222.98 184.157C222.921 183.775 222.815 183.402 222.664 183.046C222.464 182.563 222.111 182.158 221.659 181.896C221.659 181.896 219.537 179.46 214.542 179.928C214.542 179.928 213.261 179.455 213.016 179.576L214.311 181.026C214.311 181.026 215.338 180.031 216.508 180.134C216.508 180.134 214.333 180.936 214.497 181.244C214.529 181.307 215.218 181.985 215.218 181.985C215.218 181.985 216.997 180.258 218.812 180.486C218.812 180.486 216.09 181.093 215.476 182.243L216.579 183.202C216.579 183.202 218.358 181.289 220.445 181.467C220.445 181.467 217.625 182.199 216.833 183.394L218.043 184.193C218.043 184.193 219.822 182.359 221.552 182.524C221.552 182.524 218.376 183.698 218.332 184.358C218.816 184.651 219.334 184.883 219.875 185.049C219.875 185.049 221.21 183.765 222.184 183.947C222.184 183.947 220.147 184.96 220.213 185.196C220.213 185.196 221.948 185.643 222.954 185.428C222.041 185.687 221.076 185.703 220.156 185.473C220.443 185.982 220.873 186.396 221.392 186.664C221.392 186.664 220.342 186.856 219.737 185.353C219.737 185.353 218.403 184.938 218.265 184.75C218.265 184.75 218.652 186.321 219.373 187.106C219.373 187.106 218.154 186.61 217.936 184.55L216.704 183.769C216.704 183.769 217.109 185.87 217.7 186.615C217.7 186.615 216.535 185.919 216.41 183.546L215.32 182.618C215.426 183.581 215.658 184.526 216.01 185.428C216.01 185.428 215.067 184.536 215.018 182.342L214.364 181.632C214.364 181.632 214.542 182.971 214.626 183.35C214.711 183.729 214.626 183.796 214.626 183.796C214.226 183.046 214.041 182.2 214.093 181.351C214.093 181.351 212.838 179.799 212.736 179.866Z" fill="#A5B8F0"/>
<path d="M184.258 282.9C184.258 282.9 207.336 275.107 202.558 247.495L173.245 239.863L166.439 262.519L184.258 282.9Z" fill="#CED7E7"/>
<path opacity="0.1" d="M166.439 262.519L184.254 282.9C184.254 282.9 207.331 275.107 202.554 247.495L166.439 262.519Z" fill="black"/>
<path d="M69.4678 58.5293C69.4678 58.5293 72.5815 63.6101 76.8385 61.072C81.0954 58.5338 77.012 51.5215 77.012 51.5215C77.012 51.5215 68.8584 50.4019 69.4678 58.5293Z" fill="#FED253"/>
<path opacity="0.1" d="M76.8385 61.072C76.3363 61.3978 75.7731 61.6173 75.1834 61.717C74.5936 61.8167 73.9898 61.7945 73.4089 61.6518C71.8476 61.2548 70.6466 60.0504 70.0016 59.2609C69.8091 59.0296 69.6309 58.7868 69.4678 58.5338C69.2498 55.6343 70.1484 53.908 71.3939 52.891C73.1064 51.4948 75.4773 51.4368 76.5004 51.4814C76.8162 51.4814 76.9986 51.526 76.9986 51.526L77.0831 51.6687C77.2032 51.8962 77.4657 52.4003 77.7459 53.0739C78.6978 55.2819 79.8321 59.2832 76.8385 61.072Z" fill="black"/>
<path d="M186.527 246.197L202.541 247.495L232.344 247.74L208.862 276.735C208.862 276.735 201.411 277.141 199.876 278.194C198.341 279.247 176.794 278.685 176.794 278.685L173.316 263.821L186.527 246.197Z" fill="#FFA2A2"/>
<path opacity="0.05" d="M186.527 246.197L202.541 247.495L232.344 247.74L208.862 276.735C208.862 276.735 201.411 277.141 199.876 278.194C198.341 279.247 176.794 278.685 176.794 278.685L173.316 263.821L186.527 246.197Z" fill="black"/>
<path d="M170.331 168.241L174.054 174.575L174.864 185.62C174.864 185.62 177.457 195.037 179.401 197.798C181.345 200.559 182.154 207.87 182.154 207.87C182.154 207.87 182.964 214.691 183.934 216.15C184.903 217.608 186.202 228.194 186.202 228.194C186.202 228.194 194.787 245.407 202.558 247.517C202.558 247.517 164.015 260.186 184.258 282.922C184.258 282.922 169.846 286.491 166.443 282.436C163.04 278.381 154.135 218.286 154.135 218.286L156.889 167.612L170.331 168.241Z" fill="#CED7E7"/>
<path opacity="0.05" d="M170.331 168.241L174.054 174.575L174.864 185.62C174.864 185.62 177.457 195.037 179.401 197.798C181.345 200.559 182.154 207.87 182.154 207.87C182.154 207.87 182.964 214.691 183.934 216.15C184.903 217.608 186.202 228.194 186.202 228.194C186.202 228.194 194.787 245.407 202.558 247.517C202.558 247.517 164.015 260.186 184.258 282.922C184.258 282.922 169.846 286.491 166.443 282.436C163.04 278.381 154.135 218.286 154.135 218.286L156.889 167.612L170.331 168.241Z" fill="black"/>
<path d="M123.567 106.509C122.485 112.136 122.806 117.943 124.501 123.415L118.505 140.629C118.505 140.629 72.8351 115.132 76.7228 108.958C78.9247 105.456 79.205 96.1913 79.027 88.8311C78.898 83.2374 78.5021 78.7498 78.5021 78.7498C78.5021 78.7498 134.55 84.2767 127.09 97.1058C125.402 100.022 124.211 103.2 123.567 106.509Z" fill="#FFA2A2"/>
<path opacity="0.1" d="M127.09 97.1058C125.402 100.022 124.211 103.2 123.567 106.509C115.249 109.177 106.267 108.874 98.1469 105.652C90.0269 102.429 83.2707 96.4851 79.027 88.8311C78.898 83.2374 78.5021 78.7498 78.5021 78.7498C78.5021 78.7498 134.536 84.2767 127.09 97.1058Z" fill="black"/>
<path d="M149.763 69.4938C149.766 75.4483 148.369 81.3197 145.684 86.6308C142.999 91.9418 139.103 96.5425 134.311 100.059C129.519 103.576 123.968 105.909 118.107 106.868C112.247 107.828 106.244 107.388 100.585 105.583C94.927 103.778 89.773 100.66 85.5425 96.4817C81.312 92.3034 78.1244 87.183 76.2387 81.5367C74.3531 75.8905 73.8226 69.8777 74.6905 63.9871C75.5584 58.0965 77.8 52.4944 81.2333 47.6362C81.7671 46.8838 82.3291 46.1493 82.9192 45.4326C86.2817 41.3342 90.4661 37.9906 95.2007 35.619C97.7694 34.3303 100.479 33.3453 103.274 32.6838C108.322 31.4847 113.562 31.3399 118.667 32.2585C123.773 33.1772 128.636 35.1395 132.953 38.0236C137.27 40.9077 140.949 44.6517 143.761 49.0228C146.574 53.3939 148.459 58.2986 149.3 63.4317C149.614 65.4369 149.769 67.464 149.763 69.4938Z" fill="#FFA2A2"/>
<path d="M164.66 225.089C164.095 228.113 164.802 233.64 165.874 239.265C165.918 239.51 165.967 239.756 166.016 240.001C166.065 240.246 166.136 240.626 166.199 240.933C166.692 243.351 167.231 245.746 167.756 247.923C168.28 250.1 168.752 251.965 169.152 253.499C169.757 255.797 170.171 257.242 170.171 257.242C170.171 257.242 170.224 258.66 170.296 260.917C170.336 262.22 170.38 263.808 170.424 265.561C170.424 266.07 170.456 266.587 170.469 267.122C170.491 268.055 170.513 269.023 170.536 270.013C170.536 270.334 170.536 270.655 170.558 270.981C170.558 272.047 170.598 273.135 170.616 274.219C170.638 275.709 170.656 277.199 170.665 278.644C170.665 279.198 170.665 279.742 170.665 280.277C170.665 281.66 170.665 282.985 170.665 284.202C170.616 287.66 170.478 290.269 170.184 291.023C170.082 291.282 169.989 291.563 169.9 291.857C169.514 293.242 169.234 294.654 169.063 296.081L168.307 295.461C166.861 294.266 165.429 293.044 163.975 291.857C161.557 289.826 158.99 287.98 156.297 286.335C156.115 286.228 155.932 286.121 155.745 286.018C155.247 285.728 154.74 285.456 154.224 285.197C153.161 284.66 152.071 284.177 150.959 283.752C145.821 281.789 140.319 281.076 134.741 281.196C132.517 282.048 131.071 282.659 131.071 282.659L128.242 283.516L127.771 283.658C124.706 284.595 120.395 285.924 118.843 286.477C116.334 287.37 94.5513 291.915 94.5513 291.915C92.5613 292.46 90.5284 292.833 88.475 293.03C84.7361 294.085 80.93 294.884 77.0831 295.421C68.3413 296.542 59.4625 295.825 51.0121 293.316C50.7599 293.331 50.5069 293.323 50.2559 293.293C50.4116 293.293 50.5629 293.258 50.7008 293.231L50.1581 293.07L49.4152 292.838C48.1697 292.446 46.9346 292.016 45.7099 291.549L44.967 291.264C43.7808 290.806 42.6198 290.314 41.4841 289.787L40.7412 289.448C39.555 288.895 38.394 288.311 37.2583 287.695C36.849 287.481 36.4442 287.249 36.0439 287.031C34.834 286.353 33.6478 285.642 32.4853 284.898C32.2896 283.217 32.1873 282.093 32.1873 282.093L30.4525 273.43L30.3635 272.984L29.118 266.739L29.0291 266.293L26.3201 252.705L26.2311 252.259L24.9856 246.014L24.8967 245.568L22.1521 231.99L22.0632 231.544L20.8176 225.298L20.7287 224.852L18.0064 211.247L17.9174 210.801L16.6719 204.578L16.5829 204.132L16.0892 201.679L15.3463 197.963C15.3463 197.963 12.9754 194.564 10.3065 190.545L10.0085 190.099C9.24784 188.97 8.46496 187.797 7.70431 186.646C7.45076 186.267 7.20611 185.892 6.96146 185.522C6.59077 184.96 6.23195 184.411 5.88499 183.876L5.64478 183.506L5.59586 183.43C1.76149 177.479 4.32811 174.892 4.32811 174.892C4.32811 174.892 5.93837 172.706 8.01568 169.816C8.11799 169.669 8.22475 169.521 8.33596 169.37C9.2256 168.121 10.2042 166.756 11.165 165.391L11.9079 164.329C12.1881 163.932 12.4639 163.535 12.7308 163.143C12.8375 162.995 12.9399 162.844 13.0377 162.696C15.0883 159.726 16.7787 157.134 17.1256 156.215C17.6683 154.765 21.129 150.479 24.5764 146.718C27.2943 143.747 29.9988 141.107 31.2131 140.473C33.9666 139.014 35.1009 134.299 35.1009 134.299C35.1009 134.299 41.0926 132.194 41.9022 130.57C42.7118 128.947 54.0503 121.649 54.0503 121.649C54.0503 121.649 58.6364 118.687 60.4913 116.903C60.7539 116.669 60.9829 116.401 61.1719 116.104C61.8169 114.944 66.0293 113.99 67.7419 113.646C68.1867 113.557 68.4625 113.508 68.4625 113.508C69.1539 112.248 70.0278 111.098 71.0558 110.095C71.7542 109.475 72.626 107.339 73.36 105.269C74.1562 103.012 74.7745 100.839 74.7745 100.839C76.0734 96.4545 78.6622 97.7526 78.6622 97.7526C78.6587 98.3516 78.7154 98.9493 78.8313 99.5369C79.9122 104.89 85.7838 107.12 88.8665 109.623C92.2693 112.379 97.6116 119.53 101.824 120.989C105.312 122.197 109.355 126.756 110.636 128.277L110.734 128.393C110.947 128.643 111.054 128.786 111.054 128.786C111.054 128.786 113.443 128.661 114.897 128.634H115.427C115.723 128.605 116.004 128.49 116.236 128.304C117.682 127.318 119.835 124.428 120.774 123.763C121.903 122.947 123.042 109.792 123.042 109.792L123.1 109.765C127.134 107.87 131.463 126.846 131.463 126.846C131.463 126.846 139.073 129.121 139.723 130.744C139.847 131.065 140.421 131.636 141.284 132.328C145.214 135.339 149.396 138.003 153.784 140.29C153.882 140.339 153.975 140.388 154.073 140.428C154.161 140.476 154.252 140.519 154.344 140.558C154.509 140.638 154.669 140.71 154.82 140.776C155.06 140.883 155.283 140.973 155.487 141.044L155.754 141.138C156.392 141.35 156.992 141.662 157.534 142.061C157.694 142.177 157.854 142.298 158.01 142.427C158.615 142.932 159.172 143.494 159.673 144.104C159.749 144.193 159.82 144.287 159.891 144.376C160.229 144.8 160.532 145.219 160.781 145.607C161.19 146.206 161.562 146.829 161.897 147.472C161.897 147.472 168.534 158.842 170.642 160.136C172.751 161.43 174.045 174.593 174.045 174.593L166.928 201.05C166.928 201.05 166.595 207.741 165.972 214.566C165.625 218.393 165.184 222.287 164.66 225.089Z" fill="#CED7E7"/>
<path d="M111.054 129.589C111.054 129.589 106.281 132.185 102.554 132.43C102.066 132.453 101.577 132.425 101.095 132.346C97.1891 131.752 91.4598 128.532 91.4598 128.532L98.181 121.14L106.357 125.204L109.364 128.01L111.054 129.589Z" fill="#63667E"/>
<path opacity="0.1" d="M149.282 63.4317C149.113 63.6715 148.921 63.8942 148.708 64.0963C146.369 66.3267 142.214 65.4033 139.025 64.8859C136.253 64.4315 133.546 63.6468 130.96 62.5485C128.709 61.5849 126.009 60.4073 123.985 61.7901C123.207 62.3165 122.673 63.1596 121.863 63.6235C121.054 64.0874 120.022 64.1186 119.065 64.132C115.952 64.132 112.838 64.1677 109.8 63.4629C105.267 62.4013 100.579 59.7293 96.2683 61.4913C92.8965 62.8652 91.0683 66.5453 90.1564 70.0826C89.7116 71.8179 89.3824 73.6512 88.3771 75.1233C87.3718 76.5953 85.428 77.6391 83.7732 76.9477C81.3312 75.9262 80.9709 71.7688 78.0261 71.5592C74.7923 71.3317 74.8323 74.6817 75.7753 77.1039C77.1721 80.6724 79.0003 84.241 79.0804 87.9613C75.6048 81.7188 73.9626 74.6172 74.3436 67.4779C74.7246 60.3385 77.1133 53.4532 81.2333 47.6184C81.9503 47.1731 82.5115 46.5153 82.8391 45.736C82.8721 45.6306 82.8988 45.5233 82.9192 45.4148C83.1638 44.1702 82.4744 42.8632 82.4343 41.5607C82.2786 38.3802 85.7127 36.1632 88.862 35.7617C90.9571 35.4941 93.1011 35.6993 95.2007 35.6324C96.2583 35.609 97.31 35.4684 98.3367 35.2131C100.108 34.6808 101.767 33.8265 103.23 32.6928C108.277 31.4936 113.517 31.3488 118.623 32.2674C123.729 33.1861 128.591 35.1485 132.908 38.0325C137.225 40.9166 140.905 44.6606 143.717 49.0317C146.529 53.4028 148.414 58.3075 149.255 63.4406L149.282 63.4317Z" fill="black"/>
<path d="M150.043 60.8043C149.821 61.6866 149.359 62.4898 148.708 63.1239C146.369 65.3543 142.214 64.4264 139.025 63.909C136.253 63.4645 133.545 62.6857 130.96 61.5894C128.709 60.6304 126.009 59.4527 123.985 60.8356C123.207 61.3619 122.673 62.205 121.863 62.6689C121.054 63.1328 120.022 63.1641 119.065 63.173C115.952 63.1953 112.838 63.2131 109.8 62.5083C105.267 61.4422 100.579 58.7747 96.2683 60.5322C92.8965 61.9061 91.0683 65.5907 90.1564 69.1281C89.7116 70.8633 89.3824 72.6967 88.3771 74.1642C87.3719 75.6318 85.428 76.6846 83.7732 75.9931C81.3312 74.9716 80.9709 70.8142 78.0261 70.6046C74.7923 70.3771 74.8323 73.7271 75.7753 76.1493C77.4301 80.3736 79.6809 84.5756 78.9425 89.0542C78.2085 89.0542 76.9942 89.0274 76.2736 89.0096C76.834 88.0505 75.7665 86.9086 74.7033 86.5829C73.6402 86.2573 72.3992 86.2618 71.5896 85.4856C70.78 84.7094 70.7756 83.5095 70.8601 82.4344C71.0446 80.1367 71.6051 77.8852 72.5193 75.7701C73.102 74.4319 73.8537 72.9821 73.4089 71.5815C73.1419 70.9466 72.8204 70.3361 72.4481 69.757C71.5229 67.9727 71.7408 65.7424 72.5326 63.9001C72.8707 63.115 73.1153 62.3745 73.3956 61.6697C73.7495 60.6679 74.2616 59.7296 74.9124 58.8907C75.931 57.6194 76.9274 55.7057 75.802 54.5236C75.5174 54.2247 76.0867 54.0196 75.9043 53.6315C75.8721 53.5652 75.8496 53.4946 75.8376 53.4218C75.7853 52.9519 75.8986 52.4785 76.1579 52.0836C76.2104 51.981 76.2683 51.8812 76.3314 51.7847C76.3825 51.6828 76.4405 51.5844 76.5049 51.4903C77.4898 49.8411 78.7989 48.41 80.3526 47.2838C81.3178 46.5835 82.4477 45.9099 82.8302 44.7769C83.275 43.4387 82.4922 42.0157 82.4254 40.6016C82.2697 37.4211 85.7038 35.2042 88.8531 34.8027C92.0024 34.4012 95.2674 35.0659 98.3367 34.2496C102.691 33.0987 105.752 29.2446 109.706 27.0812C111.87 25.9212 114.269 25.2723 116.72 25.1842C119.172 25.0961 121.611 25.571 123.852 26.5726C128.469 28.687 131.952 32.9604 136.774 34.5663C138.482 35.1372 140.332 35.3647 141.871 36.3104C143.651 37.4078 144.732 39.3259 145.657 41.2172C147.067 44.0855 147.352 46.9671 148.326 50.0049C149.1 52.4137 150.172 55.563 150.261 58.3375C150.311 59.1661 150.237 59.9975 150.043 60.8043Z" fill="#896363"/>
<g opacity="0.1">
<path opacity="0.1" d="M76.3803 55.215C76.4515 54.9295 76.4585 54.6317 76.4008 54.3432C76.3431 54.0546 76.2221 53.7826 76.0467 53.5467C76.1623 53.8946 75.6597 54.0954 75.9355 54.3853C76.1552 54.6169 76.3088 54.9035 76.3803 55.215Z" fill="black"/>
<path opacity="0.1" d="M76.0334 52.5252C75.9809 52.6809 75.9495 52.8429 75.9399 53.0069C76.0245 52.8642 76.1401 52.717 76.0334 52.5252Z" fill="black"/>
<path opacity="0.1" d="M148.833 62.0355C146.489 64.2658 142.338 63.3425 139.14 62.8206C136.371 62.3734 133.665 61.59 131.084 60.4876C128.829 59.5241 126.134 58.3464 124.105 59.7293C123.331 60.2556 122.797 61.0987 121.983 61.5626C121.169 62.0266 120.142 62.0578 119.186 62.0667C116.072 62.0667 112.958 62.1069 109.915 61.3976C105.387 60.3359 100.699 57.6729 96.3884 59.4259C93.0166 60.8043 91.1884 64.4844 90.2766 68.0218C89.8317 69.757 89.507 71.5904 88.4973 73.0624C87.4875 74.5345 85.5436 75.5783 83.8934 74.8913C81.4513 73.8654 81.091 69.7124 78.1463 69.5028C75.8465 69.3377 75.206 70.9882 75.3617 72.8215C75.4951 71.4209 76.2513 70.3414 78.1463 70.4752C81.091 70.6848 81.4513 74.8423 83.8934 75.8638C85.5436 76.5552 87.492 75.5158 88.4973 74.0349C89.5026 72.5539 89.8317 70.7295 90.2766 68.9987C91.1884 65.4613 93.0166 61.7768 96.3884 60.4028C100.699 58.6453 105.387 61.295 109.915 62.3745C112.94 63.0837 116.081 63.0614 119.186 63.0391C120.142 63.0391 121.152 63.0124 121.983 62.5395C122.815 62.0667 123.318 61.2325 124.105 60.7017C126.134 59.3233 128.829 60.501 131.084 61.46C133.666 62.5618 136.371 63.3467 139.14 63.7975C142.338 64.3149 146.489 65.2472 148.833 63.0079C150.105 61.7901 150.488 60.0281 150.403 58.1011C150.332 59.6311 149.887 61.0184 148.833 62.0355Z" fill="black"/>
<path opacity="0.1" d="M82.5811 39.7942C82.5565 40.0164 82.5476 40.24 82.5544 40.4633C82.5989 41.3912 82.9503 42.319 83.0615 43.2245C83.2261 42.1138 82.7146 40.954 82.5811 39.7942Z" fill="black"/>
<path opacity="0.1" d="M73.5423 71.4432C73.579 71.5766 73.6072 71.7121 73.6269 71.8491C73.699 71.3889 73.6701 70.9186 73.5423 70.4707C73.2771 69.8336 72.9556 69.2215 72.5815 68.6418C72.2473 67.982 72.0492 67.2613 71.9988 66.523C71.9084 67.5889 72.1099 68.6593 72.5815 69.6187C72.9564 70.1963 73.2781 70.807 73.5423 71.4432Z" fill="black"/>
<path opacity="0.1" d="M79.0626 87.939L76.4604 87.8988C76.5211 88.0565 76.5454 88.2258 76.5315 88.3943C76.5177 88.5627 76.466 88.7258 76.3803 88.8713C77.1143 88.8713 78.3331 88.898 79.0493 88.9159C79.1737 88.1524 79.2169 87.3779 79.1783 86.6052C79.1681 87.0518 79.1295 87.4973 79.0626 87.939Z" fill="black"/>
<path opacity="0.1" d="M74.8057 85.4722C73.7425 85.151 72.5059 85.1466 71.7141 84.3659C71.248 83.8546 70.9853 83.1896 70.9757 82.4969C70.909 83.5229 70.9757 84.6291 71.7141 85.3428C72.5059 86.1235 73.7425 86.1279 74.8057 86.4491C75.1516 86.55 75.4732 86.7208 75.7509 86.9509C76.0286 87.181 76.2564 87.4657 76.4204 87.7873C76.8696 86.864 75.8376 85.78 74.8057 85.4722Z" fill="black"/>
</g>
<path opacity="0.1" d="M155.732 286.018C155.234 285.728 154.727 285.456 154.211 285.197C153.148 284.66 152.058 284.178 150.946 283.752C145.808 281.789 140.306 281.076 134.728 281.196C132.503 282.048 131.058 282.659 131.058 282.659L128.229 283.516L127.757 283.658C127.726 283.346 127.691 283.034 127.659 282.717C127.628 282.4 127.593 282.097 127.557 281.785C126.561 272.324 125.778 262.604 125.778 262.604V254.209V253.232L125.724 228.497L125.28 220.343L125.071 216.734L125.03 216.047L124.95 214.637L124.906 213.799C124.808 213.533 124.725 213.262 124.657 212.987C124.626 212.875 124.595 212.75 124.568 212.621C124.457 212.175 124.337 211.6 124.212 210.975C123.398 206.871 122.379 199.953 122.317 198.547C122.237 196.674 120.618 185.469 120.618 185.469C120.453 179.299 115.28 167.684 113.977 165.493C112.673 163.303 111.219 150.144 111.708 149.435C111.962 149.056 112.126 146.812 112.229 144.742C112.229 144.506 112.251 144.274 112.26 144.046C112.326 142.427 112.358 141.075 112.358 141.075L117.446 140.067L118.812 139.8L118.919 139.777L118.963 139.866C119.11 140.139 119.568 141.008 120.106 142.15C120.169 142.271 120.226 142.4 120.289 142.53C120.315 142.592 120.347 142.654 120.378 142.717C121.374 144.903 122.526 147.78 122.477 149.435C122.397 152.361 125.72 159.427 125.72 159.427C126.04 161.05 133.086 177.207 133.086 177.207C133.086 177.207 138.838 193.043 138.513 195.644C138.188 198.244 141.266 215.458 141.266 215.458L144.425 233.163C145.959 236.651 147.983 244.689 147.983 244.689L148.753 249.248L148.9 250.118L150.95 262.282L151.956 268.242C151.956 268.242 152.378 271.409 153.019 274.933C153.072 275.25 153.134 275.571 153.197 275.892C153.591 278.212 154.152 280.5 154.874 282.739C155.232 283.812 155.518 284.907 155.732 286.018Z" fill="black"/>
<path d="M156.284 286.335C156.101 286.228 155.919 286.121 155.732 286.018C155.234 285.728 154.727 285.456 154.211 285.197C153.148 284.66 152.058 284.178 150.946 283.752C145.808 281.789 140.306 281.076 134.728 281.196C132.503 282.048 131.058 282.659 131.058 282.659L128.229 283.516C128.193 283.203 128.162 282.891 128.126 282.574C128.091 282.258 128.064 282.003 128.037 281.718C127.041 272.279 126.258 262.604 126.258 262.604V254.128V253.151L126.205 228.479L125.76 220.691L125.671 219.076L125.609 217.983L125.529 216.538L125.449 215.07L125.391 214.013V213.781C125.391 213.759 125.391 213.732 125.36 213.705C125.275 213.464 125.173 213.098 125.062 212.634L125.008 212.411C124.986 212.309 124.959 212.197 124.937 212.086C124.101 208.281 122.873 200.077 122.806 198.539C122.726 196.665 121.107 185.46 121.107 185.46C120.943 179.29 115.769 167.675 114.466 165.484C113.163 163.294 111.712 150.135 112.197 149.426C112.478 148.98 112.642 146.272 112.749 144.037C112.749 143.859 112.749 143.685 112.749 143.52C112.807 142.141 112.829 141.066 112.829 141.066L117.562 140.13L118.763 139.893L118.95 139.858L119.395 139.768C119.395 139.768 119.977 140.848 120.676 142.333L120.765 142.521C121.783 144.724 122.989 147.722 122.953 149.426C122.873 152.352 126.196 159.418 126.196 159.418C126.516 161.042 133.562 177.198 133.562 177.198C133.562 177.198 139.314 193.034 138.989 195.635C138.664 198.235 141.742 215.449 141.742 215.449L144.901 233.154C146.435 236.642 148.459 244.68 148.459 244.68L149.175 248.927L149.322 249.788L150.937 259.387L152.427 268.233C152.427 268.233 152.872 271.387 153.486 274.924C153.544 275.245 153.601 275.567 153.664 275.892C154.058 278.222 154.618 280.521 155.341 282.771C155.735 283.936 156.05 285.127 156.284 286.335Z" fill="#63667E"/>
<path d="M152.271 57.2357C152.271 57.2357 150.572 59.4304 149.037 59.4304C147.503 59.4304 141.529 59.1851 138.415 58.2126C135.301 57.2402 120.035 56.5042 120.035 56.5042C120.035 56.5042 98.4168 56.5845 97.6873 55.8529C96.9577 55.1213 84.2447 51.2227 82.9503 51.468C82.679 51.5215 82.0162 51.6375 81.131 51.7847L80.1168 51.9498C78.5822 52.1951 76.665 52.4806 74.9124 52.6902C72.7461 52.9445 70.8423 53.0739 70.2373 52.8508V50.9818C70.2373 50.9818 72.7461 47.324 72.9062 46.2757C73.0664 45.2274 75.1748 30.0297 80.6817 24.592C82.9567 20.2308 86.6384 16.7715 91.1261 14.7784C98.5769 11.5265 106.028 8.76981 106.028 8.76981L107.331 8.58246L111.535 7.95796C111.662 7.8304 111.801 7.714 111.948 7.61002C113.114 6.71787 116.646 4.77745 121.249 8.94824L122.063 10.2508C122.063 10.2508 136.231 13.5785 142.788 25.1898C149.344 36.8011 149.674 48.1715 150.158 53.3683C150.158 53.3683 149.834 54.8314 150.483 55.3979C150.718 55.6062 150.942 55.8265 151.155 56.0581C151.213 56.1161 151.27 56.1741 151.324 56.2365C151.511 56.4239 151.684 56.6201 151.826 56.7807C151.843 56.7933 151.858 56.8083 151.871 56.8253C151.906 56.8676 151.943 56.9078 151.982 56.9458L152.271 57.2357Z" fill="#FED253"/>
<path opacity="0.05" d="M152.271 57.2357C152.271 57.2357 150.572 59.4304 149.037 59.4304C147.503 59.4304 141.529 59.1851 138.415 58.2126C135.301 57.2402 120.035 56.5042 120.035 56.5042C120.035 56.5042 98.4168 56.5845 97.6873 55.8529C96.9578 55.1213 84.2448 51.2227 82.9503 51.468C82.679 51.5215 82.0162 51.6375 81.131 51.7847L80.8997 50.3573L80.8419 50.0049C80.8419 50.0049 105.378 44.7278 121.734 47.4935C138.09 50.2591 150.158 53.337 150.158 53.337C150.158 53.337 149.834 54.8002 150.483 55.3667C150.718 55.575 150.942 55.7953 151.155 56.0269C151.213 56.0849 151.271 56.1428 151.324 56.2053C151.511 56.3926 151.684 56.5889 151.827 56.7495C151.844 56.762 151.859 56.7771 151.871 56.7941C151.906 56.8363 151.943 56.8765 151.982 56.9146L152.271 57.2357Z" fill="black"/>
<path opacity="0.1" d="M150.043 60.8043C147.014 61.0407 141.431 60.3002 138.989 59.9389C138.295 59.8363 137.614 59.7114 136.929 59.5597C134.309 58.9888 126.254 57.3874 121.361 58.1279C115.449 59.02 98.7682 57.3963 98.7682 57.3963C98.7682 57.3963 88.4839 55.2864 84.3515 53.5824C82.8347 52.9534 80.2992 52.7571 77.7771 53.0694C77.1339 53.1498 76.4954 53.2645 75.8643 53.4129C72.4214 54.2292 69.5167 56.0893 70.0194 59.2609C69.8269 59.0296 69.6487 58.7867 69.4856 58.5338C69.2676 55.6343 70.1662 53.908 71.4117 52.8909L71.7052 52.7705C73.2267 52.337 74.7751 52.0047 76.3403 51.7758C76.5849 51.7356 76.8385 51.6999 77.0965 51.6687C81.5225 51.071 87.9234 50.9371 93.3236 53.6627C93.3236 53.6627 98.3412 56.0224 101.744 56.0224C105.147 56.0224 132.837 56.2677 139.318 58.1323C140.608 58.5061 141.924 58.7849 143.255 58.9665C145.618 59.272 148.019 59.0449 150.283 58.3018C150.329 59.1434 150.248 59.9871 150.043 60.8043Z" fill="black"/>
<path opacity="0.1" d="M152.271 57.2357C152.271 57.2357 150.572 59.4304 149.037 59.4304C147.503 59.4304 141.529 59.1851 138.415 58.2126C135.301 57.2402 120.035 56.5042 120.035 56.5042C120.035 56.5042 98.4168 56.5845 97.6873 55.8529C96.9577 55.1213 84.2447 51.2227 82.9503 51.468C82.679 51.5215 82.0162 51.6375 81.131 51.7847L80.1168 51.9498C78.3553 51.9407 76.6019 52.1902 74.9124 52.6902C72.7461 52.9445 70.8423 53.0739 70.2373 52.8508V52.4806C70.7037 52.2092 71.19 51.9735 71.6919 51.7758C74.6936 50.9329 77.7845 50.4507 80.8997 50.3394C84.783 50.1967 89.3246 50.6517 93.3146 52.6679C93.3146 52.6679 98.3322 55.0277 101.735 55.0277C105.138 55.0277 132.828 55.2685 139.309 57.1376C140.6 57.5079 141.916 57.7852 143.246 57.9673C146.165 58.3362 149.129 57.9093 151.826 56.7317C151.843 56.7442 151.858 56.7592 151.871 56.7763C151.906 56.8185 151.943 56.8587 151.982 56.8967L152.271 57.2357Z" fill="black"/>
<path d="M70.0816 59.1851C70.0816 59.1851 64.6548 55.041 71.7008 52.2798C71.7008 52.2798 84.009 48.4659 93.3236 53.172C93.3236 53.172 98.3412 55.5228 101.744 55.5228C105.147 55.5228 132.837 55.7681 139.318 57.6372C140.609 58.008 141.924 58.2852 143.255 58.4669C146.703 58.8861 150.196 58.2205 153.25 56.5621C153.695 56.3168 154.095 56.1919 154.215 56.3346C154.62 56.8253 154.3 59.6668 150.737 60.2333C147.957 60.6794 141.64 59.8363 138.985 59.4482C138.295 59.3456 137.61 59.2163 136.929 59.0691C134.309 58.4981 126.254 56.8967 121.338 57.6372C115.431 58.5293 98.746 56.9056 98.746 56.9056C98.746 56.9056 88.4661 54.7957 84.3337 53.0872C80.2013 51.3788 68.5426 52.8508 70.0816 59.1851Z" fill="#FED253"/>
<path opacity="0.1" d="M115.832 15.6438C115.387 15.0015 109.671 10.4114 107.34 8.55569L111.543 7.93119C111.671 7.80363 111.81 7.68723 111.957 7.58325C115.013 10.7994 115.832 15.6438 115.832 15.6438Z" fill="black"/>
<path opacity="0.1" d="M97.2914 40.2626L95.4276 43.0238L102.554 42.7829L102.714 39.6961L97.2914 40.2626Z" fill="black"/>
<path opacity="0.1" d="M140.773 43.5948L141.582 46.1107L146.119 46.8422L144.176 43.8357L140.773 43.5948Z" fill="black"/>
<path opacity="0.1" d="M62.8755 128.054C63.3604 128.866 79.3117 149.912 83.5242 149.328C87.7366 148.743 62.8755 128.054 62.8755 128.054Z" fill="black"/>
<path opacity="0.1" d="M116.321 147.289C116.321 147.289 120.209 151.027 119.639 152.486C119.07 153.945 116.321 147.289 116.321 147.289Z" fill="black"/>
<path opacity="0.1" d="M73.8893 172.952C73.8893 172.952 70.4864 188.948 72.2702 189.456C74.0539 189.965 73.8893 172.952 73.8893 172.952Z" fill="black"/>
<path opacity="0.1" d="M117.615 235.072C118.18 236.696 122.878 247.254 123.932 247.821C124.986 248.387 117.615 235.072 117.615 235.072Z" fill="black"/>
<path opacity="0.1" d="M172.195 191.709C172.03 192.276 167.982 195.608 168.872 196.826C169.762 198.043 172.195 191.709 172.195 191.709Z" fill="black"/>
<path opacity="0.1" d="M140.773 221.346C140.693 221.757 139.883 230.268 141.422 231.905C142.961 233.542 140.773 221.346 140.773 221.346Z" fill="black"/>
<path opacity="0.1" d="M182.266 265.561C181.091 266.217 179.877 266.85 178.64 267.457C177.306 268.108 175.971 268.728 174.61 269.313C174.068 269.549 173.525 269.781 172.987 270.004C172.168 270.343 171.359 270.669 170.558 270.981C168.125 271.936 165.781 272.765 163.694 273.466C162.885 273.738 162.111 273.987 161.39 274.219C157.76 275.375 155.349 276.004 155.349 276.004C154.799 275.885 154.235 275.839 153.673 275.865C153.517 275.865 153.357 275.865 153.192 275.865C152.439 275.92 151.689 276.016 150.946 276.151C145.977 277.043 138.958 279.546 134.728 281.183C132.503 282.035 131.058 282.646 131.058 282.646L128.229 283.502L127.757 283.645C124.692 284.582 120.382 285.911 118.83 286.464C116.321 287.356 94.5379 291.902 94.5379 291.902C92.5479 292.447 90.5151 292.82 88.4617 293.017C83.4017 293.483 78.3158 293.599 73.2399 293.365C68.1422 293.695 59.8952 292.571 55.0956 291.813L54.3305 291.692C52.4756 291.389 51.2968 291.17 51.2968 291.17L51.9196 290.309L64.6904 272.64L64.766 272.533L76.665 256.078L77.1098 255.48L78.1907 253.986C78.1907 253.986 78.8402 253.093 81.3401 253.035C81.6336 253.035 81.9539 253.035 82.3053 253.035C84.4052 253.205 86.4769 253.629 88.475 254.298L89.0533 254.472C97.6695 256.947 110.987 256.327 110.987 256.327C110.987 256.327 119.274 254.989 125.787 254.186L126.271 254.124C128.4 253.822 130.542 253.636 132.69 253.566C136.658 253.646 145.243 251.537 145.243 251.537C147.089 251.14 147.868 250.805 148.908 250.06C149.046 249.962 149.193 249.855 149.353 249.739C149.798 249.404 150.31 248.994 150.968 248.485C152.169 247.562 153.855 246.309 156.506 244.551C156.737 244.399 156.982 244.248 157.244 244.105C157.507 243.962 157.84 243.77 158.161 243.61C160.728 242.391 163.435 241.492 166.221 240.933C168.532 240.435 170.877 240.112 173.236 239.965H173.587C180.259 239.609 187.074 240.755 191.06 244.515C191.757 245.176 192.364 245.926 192.866 246.746C193.109 247.135 193.326 247.54 193.515 247.959C193.879 248.758 194.149 249.596 194.32 250.457C194.353 250.618 194.38 250.778 194.4 250.939C194.4 250.988 194.4 251.033 194.4 251.082C194.4 251.211 194.427 251.34 194.436 251.47C194.792 256.809 189.267 261.636 182.266 265.561Z" fill="black"/>
<path d="M51.2968 290.211C51.2968 290.211 65.709 292.888 73.2399 292.401C73.2399 292.401 87.0872 293.133 94.5379 290.943C94.5379 290.943 116.334 286.393 118.83 285.501C121.325 284.608 131.058 281.682 131.058 281.682C131.058 281.682 150.007 273.724 155.349 275.022C155.349 275.022 197.296 264.143 194.298 249.444C191.3 234.746 164.824 238.079 156.488 243.596C148.152 249.114 149.371 249.69 145.234 250.582C145.234 250.582 136.649 252.692 132.681 252.612C128.714 252.531 110.979 255.373 110.979 255.373C110.979 255.373 97.0512 256.024 88.4706 253.343C79.8899 250.662 78.1863 253.018 78.1863 253.018L51.2968 290.211Z" fill="#FFA2A2"/>
<path opacity="0.1" d="M82.55 252.063C82.5522 252.081 82.5522 252.099 82.55 252.116C82.5189 252.448 82.4332 252.772 82.2964 253.076C80.5883 257.278 70.8912 268.612 70.8912 268.612C70.4491 269.959 69.9155 271.273 69.2943 272.547C67.9581 275.269 66.4191 277.885 64.6904 280.375C62.1279 284.1 59.3302 287.657 56.3144 291.023H56.2922C55.9084 291.309 55.5089 291.572 55.0956 291.813C54.0503 292.437 52.48 293.209 50.9988 293.302C50.7465 293.318 50.4935 293.31 50.2426 293.28C50.3983 293.28 50.5495 293.244 50.6874 293.218L50.1447 293.057L49.4019 292.825C48.1564 292.433 46.9212 292.003 45.6965 291.536L44.9536 291.25C43.7675 290.793 42.6065 290.3 41.4707 289.774L40.7278 289.435C39.5417 288.882 38.3807 288.297 37.2449 287.682C36.8357 287.468 36.4309 287.236 36.0305 287.017C34.8206 286.339 33.6344 285.628 32.472 284.885C31.2383 284.097 30.0314 283.275 28.8511 282.418C27.9615 280.763 27.2275 279.296 26.8272 278.506C26.0977 277.039 26.0354 274.938 26.1243 273.416C26.1243 273.26 26.1244 273.113 26.151 272.97C26.2267 272.016 26.3423 271.36 26.3423 271.36C25.6832 270.476 25.0886 269.546 24.563 268.577C24.2611 268.095 24.0894 267.543 24.0648 266.975C24.0849 266.747 24.0638 266.518 24.0026 266.297C23.66 264.888 22.1877 262.465 20.8265 260.944C19.8123 259.825 19.7501 255.64 19.8479 252.674C19.9057 250.89 20.0169 249.578 20.0169 249.578C19.8176 249.449 19.6685 249.256 19.5944 249.03C19.2367 248.053 18.9948 247.038 18.8738 246.005C18.8738 245.858 18.8337 245.711 18.8115 245.559C18.5268 243.512 18.3978 241.455 18.3978 241.455C15.1061 239.051 13.5403 235.299 12.8108 231.954L12.7174 231.508C12.3168 229.452 12.1467 227.357 12.2103 225.263C12.2103 225.062 12.2103 224.91 12.2103 224.817C12.2103 224.723 12.2103 224.705 12.2103 224.705C12.2103 224.705 12.6463 215.039 13.8651 211.265C13.914 211.104 13.9674 210.957 14.0208 210.819C14.1105 210.582 14.2269 210.356 14.3677 210.145C14.8125 209.552 15.1284 208.432 15.3908 207.108C15.5732 206.189 15.7244 205.167 15.8356 204.15C15.9379 203.303 16.018 202.46 16.0803 201.679C16.2538 199.591 16.3071 197.963 16.3071 197.963L15.4842 193.895C15.2574 192.784 15.0839 191.665 14.9638 190.545C14.9638 190.398 14.9282 190.25 14.9104 190.099C14.7024 188.031 14.6652 185.95 14.7992 183.876C14.7992 183.724 14.7992 183.577 14.8259 183.43C15.1732 178.707 16.4046 174.091 18.4556 169.825L18.678 169.379C18.9746 168.784 19.286 168.2 19.6122 167.626C19.8479 167.202 20.097 166.783 20.355 166.368C21.039 165.257 21.7814 164.183 22.5791 163.151C22.6948 163 22.8149 162.853 22.935 162.705C24.323 160.98 25.8655 159.385 27.5433 157.941C32.036 154.069 36.1595 152.388 39.9049 152.258C56.2833 151.678 65.4688 180.727 66.9545 185.817C67.0969 186.307 67.168 186.575 67.168 186.575C67.168 186.575 73.8048 193.235 71.8609 196.157C71.484 196.8 71.2546 197.519 71.1892 198.262C70.6554 202.192 72.1856 208.664 72.1856 208.664C72.1856 208.664 72.7283 210.449 74.3119 214.722L74.7789 215.971C75.7709 218.648 76.0022 223.139 75.4328 227.163C74.8857 231.017 73.6002 234.425 71.5406 235.299C67.3282 237.084 68.4625 238.868 69.4322 240.336C70.0084 241.388 70.4893 242.489 70.8689 243.628C71.4784 245.274 72.0433 247.004 72.2568 247.678C72.3191 247.865 72.3502 247.968 72.3502 247.968C72.9402 247.739 73.5532 247.574 74.1784 247.477C74.9747 247.366 75.762 247.446 75.9132 248.129C75.9933 248.494 76.4515 248.927 77.0965 249.36C79.0092 250.68 82.55 252.063 82.55 252.063Z" fill="black"/>
<path d="M81.5803 252.063C81.5531 252.402 81.4673 252.734 81.3267 253.044C79.6275 257.251 69.9215 268.612 69.9215 268.612C69.4775 269.958 68.944 271.272 68.3246 272.547C67.2512 274.745 66.0372 276.871 64.6904 278.912C61.902 283.13 58.8128 287.141 55.447 290.911L55.3447 291.023C55.3447 291.023 54.9533 291.322 54.3305 291.706C53.2178 292.418 51.9916 292.934 50.7052 293.231L50.1625 293.07L49.4197 292.839C48.1742 292.446 46.9391 292.016 45.7143 291.549L44.9715 291.264C43.7853 290.806 42.6243 290.314 41.4885 289.787L40.7457 289.448C39.5595 288.895 38.3985 288.311 37.2627 287.695C36.8535 287.481 36.4487 287.249 36.0484 287.031C34.8384 286.353 33.6522 285.642 32.4898 284.898C31.2561 284.11 30.0492 283.288 28.8689 282.432C28.3233 282.039 27.7836 281.636 27.2498 281.223C26.6493 280.081 26.1689 279.117 25.8708 278.52C25.1413 277.052 25.0791 274.951 25.168 273.43C25.168 273.274 25.168 273.127 25.1947 272.984C25.2703 272.029 25.386 271.373 25.386 271.373C25.386 271.373 25.0257 270.887 24.5898 270.227C24.3451 269.861 24.0827 269.438 23.8469 269.018C23.4021 268.233 23.0551 267.439 23.1218 266.989C23.1309 266.912 23.1309 266.834 23.1218 266.757C23.1152 266.606 23.0928 266.456 23.0551 266.311C22.7126 264.901 21.2358 262.479 19.8746 260.958C18.8604 259.838 18.7982 255.654 18.8916 252.687C18.8916 252.536 18.8916 252.389 18.8916 252.241C18.9539 250.702 19.0473 249.592 19.0473 249.592C18.5446 249.373 18.1576 247.754 17.9085 246.023L17.8418 245.577C17.5571 243.53 17.4281 241.473 17.4281 241.473C14.1364 239.069 12.5707 235.317 11.8456 231.972C11.3405 229.629 11.1461 227.229 11.2673 224.835C11.2673 224.763 11.2673 224.723 11.2673 224.723C11.2673 224.723 11.6499 215.008 12.8687 211.229C12.9176 211.069 12.971 210.922 13.0244 210.783C13.1311 210.552 13.264 210.333 13.4203 210.132C14.0964 209.186 14.5457 206.911 14.8393 204.583L14.8926 204.137C15.2618 201.014 15.3642 197.95 15.3642 197.95L14.5368 193.882C14.3114 192.766 14.1379 191.65 14.0163 190.532C13.9941 190.384 13.9808 190.233 13.963 190.085C13.755 188.018 13.7178 185.936 13.8518 183.863C13.8518 183.711 13.8518 183.564 13.8829 183.417C14.2281 178.693 15.4596 174.077 17.5126 169.811C17.5838 169.66 17.655 169.513 17.735 169.365C18.307 168.207 18.9426 167.081 19.6389 165.993C19.8791 165.614 20.1237 165.239 20.3817 164.869C20.7865 164.28 21.2091 163.7 21.6495 163.138L22.0053 162.692C23.3815 160.973 24.9105 159.383 26.5737 157.941C31.4667 153.735 35.9149 152.111 39.9183 152.258C55.6872 152.825 64.5392 180.829 65.9937 185.817C66.1361 186.307 66.2073 186.575 66.2073 186.575C66.2073 186.575 72.8484 193.235 70.9046 196.157C70.5277 196.8 70.2982 197.519 70.2329 198.262C69.6947 202.192 71.2293 208.664 71.2293 208.664C71.2293 208.664 71.772 210.449 73.3555 214.722C73.4979 215.119 73.6536 215.534 73.8004 215.971C74.7923 218.648 75.0236 223.14 74.4543 227.163C73.9071 231.022 72.626 234.425 70.5621 235.299C66.354 237.084 67.4839 238.868 68.4581 240.336C69.0343 241.388 69.5151 242.489 69.8948 243.628C70.6644 245.729 71.3716 247.968 71.3716 247.968C71.6628 247.855 71.9597 247.759 72.2613 247.678C72.8801 247.474 73.5354 247.405 74.1829 247.477C74.3621 247.491 74.5322 247.562 74.6689 247.679C74.8056 247.796 74.9017 247.953 74.9436 248.129C75.0637 248.664 75.9844 249.329 77.1009 249.957C78.5507 250.749 80.0465 251.452 81.5803 252.063Z" fill="#CED7E7"/>
<path opacity="0.1" d="M23.0328 209.168C24.5719 209.088 41.0926 202.674 44.4955 204.864C47.8984 207.054 68.9607 221.266 68.9607 221.266C68.9607 221.266 55.7628 203.972 44.2642 199.912C32.7655 195.853 23.0328 209.168 23.0328 209.168Z" fill="black"/>
<path opacity="0.1" d="M46.7819 235.317C46.7819 235.317 63.3026 238.645 65.8114 240.92L46.7819 235.317Z" fill="black"/>
<path opacity="0.1" d="M43.6014 260.092C43.3612 260.338 37.3739 273.813 37.8543 273.813C38.3347 273.813 43.4413 265.784 43.4413 265.784L43.6014 260.092Z" fill="black"/>
<path opacity="0.1" d="M54.8599 243.922C54.8599 243.922 50.0024 245.631 50.5673 245.791C51.1322 245.952 54.6953 244.654 54.8599 243.922Z" fill="black"/>
<path opacity="0.1" d="M50.0024 264.308C50.812 266.012 53.4008 271.128 53.9702 270.316C54.5396 269.504 50.0024 264.308 50.0024 264.308Z" fill="black"/>
<path opacity="0.1" d="M110.64 129.245L109.947 130.236C109.947 130.236 104.435 126.342 102.171 124.392C99.9069 122.443 94.5602 131.373 90.3477 133.809C86.1353 136.244 79.0137 136.896 79.0137 136.896C79.0137 136.896 73.5068 131.373 73.6758 129.758C73.8448 128.144 71.0869 127.648 70.9224 126.511C70.7578 125.374 69.7881 122.126 68.4936 120.502C67.8086 119.646 67.7107 116.965 67.773 114.632C68.2178 114.543 68.4936 114.494 68.4936 114.494C69.185 113.234 70.059 112.084 71.0869 111.081C72.546 109.783 74.8101 101.825 74.8101 101.825C76.1045 97.4404 78.6934 98.7384 78.6934 98.7384C78.6934 105.398 85.4992 107.834 88.8976 110.595C92.296 113.356 97.6428 120.502 101.855 121.966C105.312 123.148 109.355 127.72 110.64 129.245Z" fill="black"/>
<path d="M110.64 128.269L109.947 129.263C109.947 129.263 104.413 125.378 102.149 123.415C99.8847 121.453 94.5379 130.396 90.3255 132.832C86.113 135.267 78.9914 135.923 78.9914 135.923C78.9914 135.923 73.4845 130.396 73.6536 128.786C73.8226 127.176 71.0647 126.676 70.9001 125.534C70.7355 124.392 69.7658 121.149 68.4714 119.525C67.7864 118.669 67.6885 115.988 67.7508 113.655L68.4714 113.521C69.1628 112.261 70.0367 111.111 71.0647 110.109C72.5237 108.806 74.7878 100.853 74.7878 100.853C76.0823 96.4679 78.6711 97.7615 78.6711 97.7615C78.6711 104.421 85.4769 106.861 88.8753 109.623C92.2738 112.384 97.6205 119.525 101.833 120.989C105.311 122.189 109.355 126.743 110.64 128.269Z" fill="#CED7E7"/>
<path opacity="0.1" d="M111.054 129.589C111.054 129.589 106.281 132.185 102.554 132.43C102.066 132.453 101.577 132.425 101.095 132.346C101.095 132.346 105.209 129.263 109.03 128.634L111.054 129.589Z" fill="black"/>
<path opacity="0.1" d="M120.774 142.824C120.774 142.824 114.755 140.473 112.767 144.01C112.833 142.387 112.86 141.04 112.86 141.04L119.421 139.737C119.421 139.737 120.053 140.91 120.791 142.489C120.774 142.699 120.774 142.824 120.774 142.824Z" fill="black"/>
<path d="M101.095 132.346C101.095 132.346 108.305 128.005 111.77 128.371C115.405 128.75 122.446 129.018 122.446 129.018C122.446 129.018 120.017 134.54 120.342 135.678C120.667 136.815 120.747 142.338 120.747 142.338C120.747 142.338 113.461 139.496 112.246 144.773C112.246 144.773 108.278 138.845 105.605 137.056C103.831 135.771 102.303 134.175 101.095 132.346Z" fill="#63667E"/>
<path opacity="0.1" d="M141.827 137.386C139.723 137.386 132.272 132.671 130.653 129.589C129.034 126.507 126.765 129.91 124.661 131.052C123.327 131.784 118.038 130.254 115.187 129.143C116.632 128.157 119.835 125.382 120.774 124.718C121.903 123.901 123.042 110.747 123.042 110.747C127.09 108.637 131.463 127.8 131.463 127.8C131.463 127.8 139.078 130.075 139.723 131.699C139.847 132.02 140.421 132.591 141.284 133.282C142.174 135.531 142.663 137.386 141.827 137.386Z" fill="black"/>
<path d="M141.827 136.409C139.723 136.409 132.272 131.699 130.653 128.616C129.034 125.534 126.765 128.938 124.661 130.075C123.327 130.807 119.088 129.393 116.236 128.291C117.682 127.309 119.835 124.419 120.774 123.75C121.903 122.938 123.042 109.783 123.042 109.783C127.09 107.673 131.463 126.837 131.463 126.837C131.463 126.837 139.078 129.112 139.723 130.735C139.847 131.056 140.421 131.627 141.284 132.319C142.174 134.554 142.663 136.409 141.827 136.409Z" fill="#CED7E7"/>
<path d="M170.602 278.694L241.022 219.812C241.725 219.216 242.62 218.899 243.54 218.92L269.811 219.611C269.811 219.611 271.63 220.949 268.961 223.876L202.532 278.542C201.814 279.13 200.923 279.466 199.996 279.496L171.27 280.451C171.063 280.458 170.86 280.399 170.688 280.285C170.517 280.17 170.385 280.004 170.311 279.811C170.238 279.617 170.227 279.406 170.279 279.205C170.331 279.005 170.444 278.826 170.602 278.694Z" fill="#A5B8F0"/>
<path d="M204.667 271.449C204.667 271.449 220.049 293.539 237.139 272.993C254.229 252.447 249.287 241.652 244.105 241.081C238.923 240.51 209.765 263.005 204.667 271.449Z" fill="#FFA2A2"/>
<path opacity="0.1" d="M308.413 24.3868C308.413 24.3868 328.238 -14.1985 351.672 5.70082C351.672 5.70082 356.787 7.56987 356.4 12.9941C356.4 12.9941 354.429 11.9102 352.864 16.0542C352.289 17.5246 351.542 18.9216 350.64 20.2161C349.44 21.9647 347.708 23.2763 345.702 23.9542C345.702 23.9542 335.186 31.8541 315.708 25.7608C315.708 25.7608 310.201 26.5548 309.311 25.8678L315.712 21.1751C315.712 21.1751 318.964 26.015 323.719 26.5681C323.719 26.5681 315.712 21.5275 316.628 20.4346C316.815 20.2116 320.134 18.1017 320.134 18.1017C320.134 18.1017 325.823 26.4923 333.198 27.1124C333.198 27.1124 322.865 22.3884 321.384 17.2987L326.575 14.3948C326.575 14.3948 332.153 23.5616 340.529 24.5876C340.529 24.5876 329.898 19.2748 327.753 13.8372L333.247 11.6871C333.247 11.6871 338.865 20.5194 345.835 21.3268C345.835 21.3268 334.172 13.9443 334.537 11.2767C334.537 11.2767 339.701 9.60842 341.285 9.827C341.285 9.827 345.462 16.072 349.554 16.1836C349.554 16.1836 342.281 10.4203 342.762 9.53259C342.762 9.53259 350.066 9.15343 353.882 10.9243C353.882 10.9243 348.455 7.8955 342.762 8.38618C342.762 8.38618 345.337 5.34842 348.696 4.67931C348.696 4.67931 344.67 3.01992 340.991 8.4977C340.991 8.4977 335.311 9.01961 334.608 9.65303C334.608 9.65303 337.482 3.72917 341.018 1.20886C341.018 1.20886 335.747 2.14115 333.136 10.1705L327.567 12.209C327.567 12.209 330.952 4.17971 333.936 1.69954C333.936 1.69954 328.705 3.48383 326.205 12.8514L321.081 15.6438C321.081 15.6438 323.47 8.50662 326.197 5.02279C326.197 5.02279 321.699 7.72599 319.64 16.4958L316.437 18.7574C316.437 18.7574 318.274 13.574 318.937 12.1332C319.6 10.6924 319.266 10.3935 319.266 10.3935C317.04 13.033 315.588 16.2404 315.072 19.6585C315.072 19.6585 308.782 24.7437 308.413 24.3868Z" fill="#A5B8F0"/>
<path opacity="0.1" d="M390.407 45.0222C390.407 45.0222 399.365 27.5852 409.952 36.5781C409.952 36.5781 412.265 37.4211 412.087 39.8701C412.087 39.8701 411.198 39.3839 410.49 41.2574C410.234 41.921 409.9 42.5514 409.494 43.1353C408.953 43.9235 408.173 44.5163 407.27 44.826C407.27 44.826 402.515 48.3945 393.712 45.6423C393.712 45.6423 391.225 45.9991 390.825 45.6913L393.716 43.568C393.716 43.568 395.184 45.7582 397.337 46.0036C397.337 46.0036 393.725 43.7286 394.134 43.2335C394.214 43.1353 395.713 42.1807 395.713 42.1807C395.713 42.1807 398.284 45.9724 401.621 46.2534C401.621 46.2534 396.95 44.1167 396.283 41.7927L398.631 40.4857C398.631 40.4857 401.149 44.6297 404.934 45.0936C404.934 45.0936 400.13 42.6937 399.152 40.2359L401.634 39.2634C401.634 39.2634 404.169 43.2558 407.319 43.6216C407.319 43.6216 402.048 40.2849 402.217 39.0805C402.217 39.0805 404.547 38.3267 405.264 38.4248C405.264 38.4248 407.15 41.2484 409 41.2931C409 41.2931 405.713 38.6924 405.931 38.291C405.931 38.291 409.231 38.1215 410.948 38.9199C410.948 38.9199 408.497 37.5505 405.931 37.7735C406.639 36.966 407.566 36.3831 408.6 36.0963C408.6 36.0963 406.78 35.3469 405.117 37.8226C405.117 37.8226 402.55 38.059 402.234 38.3445C402.234 38.3445 403.533 35.6681 405.13 34.5306C405.13 34.5306 402.746 34.9499 401.572 38.5809L399.081 39.5177C399.081 39.5177 400.606 35.8911 401.959 34.767C401.959 34.767 399.592 35.5744 398.462 39.8032L396.149 41.0611C396.149 41.0611 397.226 37.8315 398.458 36.2613C398.458 36.2613 396.425 37.4836 395.5 41.4447L394.05 42.4662C394.05 42.4662 394.882 40.1243 395.18 39.4731C395.478 38.8218 395.326 38.688 395.326 38.688C394.32 39.8848 393.664 41.3377 393.431 42.8855C393.431 42.8855 390.562 45.1828 390.407 45.0222Z" fill="#A5B8F0"/>
<path opacity="0.1" d="M293.333 65.3097C293.333 65.3097 302.292 47.8727 312.905 56.8655C312.905 56.8655 315.214 57.7086 315.04 60.162C315.04 60.162 314.151 59.6713 313.444 61.5448C313.186 62.2077 312.851 62.838 312.447 63.4228C311.9 64.2148 311.112 64.8079 310.201 65.1134C310.201 65.1134 305.45 68.682 296.647 65.9297C296.647 65.9297 294.161 66.291 293.76 65.9788L296.652 63.8555C296.652 63.8555 298.119 66.0457 300.268 66.2955C300.268 66.2955 296.656 64.0161 297.065 63.5209C297.15 63.4228 298.649 62.4682 298.649 62.4682C298.649 62.4682 301.22 66.2598 304.552 66.5408C304.552 66.5408 299.885 64.4041 299.214 62.0801L301.562 60.7776C301.562 60.7776 304.085 64.9171 307.87 65.381C307.87 65.381 303.066 62.9812 302.087 60.5233L304.569 59.5509C304.569 59.5509 307.109 63.5432 310.259 63.909C310.259 63.909 304.988 60.5724 305.152 59.368C305.152 59.368 307.487 58.6141 308.204 58.7122C308.204 58.7122 310.09 61.5359 311.94 61.585C311.94 61.585 308.653 58.9799 308.871 58.5784C308.871 58.5784 312.167 58.4089 313.888 59.2074C313.888 59.2074 311.433 57.8379 308.866 58.061C309.574 57.2534 310.502 56.6706 311.535 56.3837C311.535 56.3837 309.72 55.6343 308.057 58.11C308.057 58.11 305.49 58.3465 305.174 58.6319C305.174 58.6319 306.469 55.9555 308.07 54.818C308.07 54.818 305.686 55.2373 304.512 58.8684L301.989 59.8051C301.989 59.8051 303.52 56.1785 304.867 55.0589C304.867 55.0589 302.505 55.8618 301.376 60.0906L299.058 61.3485C299.058 61.3485 300.139 58.119 301.371 56.5488C301.371 56.5488 299.338 57.771 298.409 61.7322L296.958 62.7537C296.958 62.7537 297.79 60.4118 298.088 59.7605C298.386 59.1092 298.24 58.9754 298.24 58.9754C297.231 60.171 296.575 61.6245 296.345 63.173C296.345 63.173 293.489 65.4703 293.333 65.3097Z" fill="#A5B8F0"/>
</g>
<defs>
<clipPath id="clip0">
<rect width="477" height="348" fill="white"/>
</clipPath>
</defs>
</svg>
